<?xml version="1.0" encoding="UTF-8"?>
<svg version="1.1" xmlns="http://www.w3.org/2000/svg" width="150" height="150">
<path d="M0 0 C49.5 0 99 0 150 0 C150 49.5 150 99 150 150 C100.5 150 51 150 0 150 C0 100.5 0 51 0 0 Z " fill="#FDFDFC" transform="translate(0,0)"/>
<path d="M0 0 C3.98895423 2.39820763 7.39615888 5.09994086 10.8125 8.25 C14.85321083 11.95500222 18.94507812 15.58766291 23.08984375 19.17578125 C25.00186223 21.00177845 26.5476455 22.79187482 28 25 C28 25.66 28 26.32 28 27 C28.5775 27.2475 29.155 27.495 29.75 27.75 C32.32939979 29.18299988 34.06121592 30.78424676 36 33 C36 33.66 36 34.32 36 35 C36.61875 35.28875 37.2375 35.5775 37.875 35.875 C40 37 40 37 42 39 C42.44921875 41.05859375 42.44921875 41.05859375 42.6875 43.4375 C42.77386719 44.21996094 42.86023438 45.00242188 42.94921875 45.80859375 C43 48 43 48 42 51 C40.44140625 52.5 40.44140625 52.5 38.5625 54 C36.11225368 55.96428932 34.78619422 57.32070868 33 60 C32.34 60 31.68 60 31 60 C30.95875 60.5775 30.9175 61.155 30.875 61.75 C29.56877052 65.10887581 26.97815968 66.0729555 24 68 C22.64843325 69.65191491 21.31037934 71.31522656 20 73 C19.34 73 18.68 73 18 73 C18 73.66 18 74.32 18 75 C16.34997172 76.35386936 14.6825613 77.68678142 13 79 C12.67 79.66 12.34 80.32 12 81 C11.34 81 10.68 81 10 81 C10 81.66 10 82.32 10 83 C0.27126176 92.49982675 -12.7542123 96.94715654 -26.0625 97.25 C-31.29834431 97.13661229 -36.00516259 96.57555274 -41 95 C-41.91265625 94.71640625 -42.8253125 94.4328125 -43.765625 94.140625 C-54.67372505 90.20000247 -63.5145784 82.56988184 -70.68359375 73.5390625 C-72.1395481 71.83684881 -73.70799364 70.48411621 -75.4375 69.0625 C-78.72745691 66.34251369 -81.42405837 63.33882668 -84.15625 60.06640625 C-86.11348112 57.8728146 -88.23804098 56.01026036 -90.4375 54.0625 C-93.30507371 51.22833492 -94.56594446 49.44467253 -94.75 45.375 C-94.48050434 38.12556663 -88.21627151 32.90143305 -83.375 28.125 C-82.78976563 27.53203125 -82.20453125 26.9390625 -81.6015625 26.328125 C-77.25349222 22 -77.25349222 22 -75 22 C-74.67 21.01 -74.34 20.02 -74 19 C-73.34 19 -72.68 19 -72 19 C-71.7525 18.4225 -71.505 17.845 -71.25 17.25 C-69.81700012 14.67060021 -68.21575324 12.93878408 -66 11 C-65.34 11 -64.68 11 -64 11 C-64 10.34 -64 9.68 -64 9 C-57.04688835 2.71429 -50.03544568 -1.44679207 -41 -4 C-39.88882813 -4.35191406 -38.77765625 -4.70382813 -37.6328125 -5.06640625 C-24.66975439 -8.3977728 -11.93533896 -5.48533319 0 0 Z " fill="#EE8A04" transform="translate(100,37)"/>
<path d="M0 0 C0.87237305 0.00064453 1.74474609 0.00128906 2.64355469 0.00195312 C10.06123586 0.172222 15.75078802 1.80126148 22.25 5.5 C22.25 6.16 22.25 6.82 22.25 7.5 C23.5184375 7.7475 23.5184375 7.7475 24.8125 8 C29.46555516 10.03042407 32.60632499 13.15905435 35.25 17.5 C35.4453125 20.26171875 35.4453125 20.26171875 35.25 22.5 C35.91 22.5 36.57 22.5 37.25 22.5 C42.80614157 30.83421236 41.09947737 40.04095466 40.25 49.5 C39.92 49.5 39.59 49.5 39.25 49.5 C39.23582031 48.71238281 39.22164063 47.92476562 39.20703125 47.11328125 C38.76011958 36.90678489 36.51148302 27.72048502 30.25 19.5 C30.25 18.84 30.25 18.18 30.25 17.5 C29.6725 17.231875 29.095 16.96375 28.5 16.6875 C26.19449957 15.47070811 24.22943808 14.19666121 22.25 12.5 C22.25 11.84 22.25 11.18 22.25 10.5 C21.51394531 10.30664062 20.77789062 10.11328125 20.01953125 9.9140625 C19.04371094 9.65367188 18.06789062 9.39328125 17.0625 9.125 C16.09957031 8.86976562 15.13664062 8.61453125 14.14453125 8.3515625 C11.25 7.5 11.25 7.5 8.70703125 6.41796875 C1.06402097 3.56247206 -8.43640899 5.39944944 -15.75 8.5 C-22.02655677 12.25102931 -27.51343809 16.51037799 -31.75 22.5 C-31.75 22.83 -31.75 23.16 -31.75 23.5 C-31.2653125 22.96890625 -30.780625 22.4378125 -30.28125 21.890625 C-23.41610239 14.65581559 -16.69064749 10.48528243 -6.5625 9.9375 C3.35961524 10.01984121 12.47698647 14.05564468 19.74609375 20.82421875 C26.20985131 28.73929817 26.89203201 36.54850378 26.25 46.5 C25.77836976 48.99638766 25.13831385 51.11265653 24.25 53.5 C23.59 53.5 22.93 53.5 22.25 53.5 C21.9715625 54.551875 21.9715625 54.551875 21.6875 55.625 C19.35704356 60.28591287 15.55978964 63.35669275 10.9140625 65.65625 C4.65063835 67.63997378 -2.99816805 67.38749448 -9.25 65.375 C-13.37919309 63.16293227 -15.13652536 61.33854088 -17.75 57.5 C-17.75 56.84 -17.75 56.18 -17.75 55.5 C-18.41 55.5 -19.07 55.5 -19.75 55.5 C-21.44732583 49.65674713 -22.03956061 42.81754183 -19.80859375 37.078125 C-16.83754706 32.12327597 -13.33482184 28.36160728 -7.75 26.5 C-2.50310227 26.24195585 1.30295901 26.52118361 6.25 28.5 C2.96099265 25.21099265 -0.115019 25.34047158 -4.5625 25.3125 C-12.21787577 25.33761537 -12.21787577 25.33761537 -18.58984375 29.203125 C-24.43692762 35.4687118 -26.10275341 40.93407368 -26.0625 49.5 C-26.08666992 50.52867188 -26.08666992 50.52867188 -26.11132812 51.578125 C-26.11585928 56.32677897 -25.0622076 59.40025459 -22.75 63.5 C-22.75 64.16 -22.75 64.82 -22.75 65.5 C-22.110625 65.768125 -21.47125 66.03625 -20.8125 66.3125 C-18.75 67.5 -18.75 67.5 -17.75 70.5 C-15.73491642 71.23323796 -15.73491642 71.23323796 -13.75 71.5 C-13.75 72.16 -13.75 72.82 -13.75 73.5 C-13.193125 73.603125 -12.63625 73.70625 -12.0625 73.8125 C-9.2730899 74.64178408 -7.1360936 75.84299056 -4.75 77.5 C-4.75 78.16 -4.75 78.82 -4.75 79.5 C0.86 79.5 6.47 79.5 12.25 79.5 C12.25 79.83 12.25 80.16 12.25 80.5 C-0.4195675 82.82938237 -10.34771222 81.34597665 -21.75 75.5 C-21.75 74.84 -21.75 74.18 -21.75 73.5 C-22.41 73.5 -23.07 73.5 -23.75 73.5 C-23.75 72.84 -23.75 72.18 -23.75 71.5 C-24.306875 71.29375 -24.86375 71.0875 -25.4375 70.875 C-30.7283198 67.72910715 -33.22663046 63.31650188 -34.75 57.5 C-35.41 57.5 -36.07 57.5 -36.75 57.5 C-37.08 54.86 -37.41 52.22 -37.75 49.5 C-38.41 49.5 -39.07 49.5 -39.75 49.5 C-40.08328851 40.93325085 -39.86584616 33.54926924 -36.75 25.5 C-36.09 25.5 -35.43 25.5 -34.75 25.5 C-34.68941406 24.87351562 -34.62882812 24.24703125 -34.56640625 23.6015625 C-34.48261719 22.78429687 -34.39882813 21.96703125 -34.3125 21.125 C-34.19068359 19.90683594 -34.19068359 19.90683594 -34.06640625 18.6640625 C-33.75 16.5 -33.75 16.5 -32.75 14.5 C-32.09 14.5 -31.43 14.5 -30.75 14.5 C-30.75 13.84 -30.75 13.18 -30.75 12.5 C-30.09 12.5 -29.43 12.5 -28.75 12.5 C-28.75 11.84 -28.75 11.18 -28.75 10.5 C-26.625 8.87890625 -26.625 8.87890625 -23.75 7.0625 C-22.821875 6.46566406 -21.89375 5.86882813 -20.9375 5.25390625 C-13.92799697 1.39696157 -8.00722942 -0.05537078 0 0 Z " fill="#DF7302" transform="translate(73.75,38.5)"/>
<path d="M0 0 C2.625 2.4375 2.625 2.4375 5 5 C5.66 5.598125 6.32 6.19625 7 6.8125 C15.07316559 15.64252487 16.64896829 24.79742688 16.3828125 36.359375 C15.94178404 44.08213228 13.47104653 50.95871196 8.5625 57 C7.2940625 57.99 7.2940625 57.99 6 59 C4.700625 60.2684375 4.700625 60.2684375 3.375 61.5625 C-3.70152372 67.25252925 -12.12051519 68.61601376 -20.9765625 68.33203125 C-26.50490026 67.72491405 -31.12727235 65.63939414 -36 63 C-36 62.34 -36 61.68 -36 61 C-36.59683594 60.90074219 -37.19367187 60.80148438 -37.80859375 60.69921875 C-40.42237976 59.86522999 -41.32683271 58.90918608 -43.0625 56.8125 C-43.54847656 56.24144531 -44.03445312 55.67039063 -44.53515625 55.08203125 C-48.24446014 49.80987398 -49.48403089 45.46503642 -49.375 39.0625 C-49.38660156 38.38509766 -49.39820313 37.70769531 -49.41015625 37.00976562 C-49.36866549 29.79728805 -46.95543089 24.27513611 -42 19 C-41.34 19 -40.68 19 -40 19 C-39.67 18.01 -39.34 17.02 -39 16 C-33.28849072 13.0670628 -25.00655866 12.71641732 -18.890625 14.67578125 C-17.25 15.5 -17.25 15.5 -15 17 C-15.33 17.66 -15.66 18.32 -16 19 C-16.825 18.67 -17.65 18.34 -18.5 18 C-23.82911862 16.47739468 -28.01272951 16.27388194 -33.25 18.1875 C-37.36559187 20.90004919 -40.24349616 24.39490514 -42 29 C-42.13997227 31.78824758 -42.1888913 34.46827116 -42.125 37.25 C-42.11146484 38.36761719 -42.11146484 38.36761719 -42.09765625 39.5078125 C-42.07418358 41.33868059 -42.03831525 43.16938238 -42 45 C-41.34 45 -40.68 45 -40 45 C-39.0559153 46.25683102 -38.16868119 47.55671554 -37.3125 48.875 C-35.20625253 51.72700016 -34.18760143 52.90811359 -30.9375 54.5 C-22.94944436 55.51435627 -14.84246273 56.53755722 -7.65234375 52.28125 C-4.3662484 49.73316661 -1.86890861 46.73781722 0 43 C0.66 43 1.32 43 2 43 C3.70617185 33.82932628 4.78505442 23.36457188 0 15 C-0.33257812 14.40832031 -0.66515625 13.81664063 -1.0078125 13.20703125 C-5.55469249 6.72987202 -13.5842092 3.19539288 -21 1 C-29.27027245 -0.26708108 -36.9233537 0.32751185 -44 5 C-47.92580592 7.99368216 -51.25283379 10.87925069 -54 15 C-54.66 14.67 -55.32 14.34 -56 14 C-50.49162137 4.42021107 -41.713128 -2.12654128 -31.1875 -5.25 C-20.35313469 -7.60345313 -9.48746727 -5.73660812 0 0 Z " fill="#F4F3F0" transform="translate(96,49)"/>
<path d="M0 0 C3.98895423 2.39820763 7.39615888 5.09994086 10.8125 8.25 C14.85321083 11.95500222 18.94507812 15.58766291 23.08984375 19.17578125 C25.00186223 21.00177845 26.5476455 22.79187482 28 25 C28 25.66 28 26.32 28 27 C28.5775 27.2475 29.155 27.495 29.75 27.75 C32.32939979 29.18299988 34.06121592 30.78424676 36 33 C36 33.66 36 34.32 36 35 C36.61875 35.28875 37.2375 35.5775 37.875 35.875 C40 37 40 37 42 39 C42.484375 41.05859375 42.484375 41.05859375 42.75 43.4375 C42.84796875 44.21996094 42.9459375 45.00242188 43.046875 45.80859375 C43 48 43 48 41 51 C40.67 50.01 40.34 49.02 40 48 C38.515 48.495 38.515 48.495 37 49 C37 49.66 37 50.32 37 51 C36.0925 51.391875 35.185 51.78375 34.25 52.1875 C30.90843592 53.77495823 30.90843592 53.77495823 29 56.5625 C27 59 27 59 23.9375 59.9375 C20.69668344 60.76016332 20.69668344 60.76016332 19.125 64.125 C18.568125 65.548125 18.568125 65.548125 18 67 C17.34 67 16.68 67 16 67 C15.505 68.485 15.505 68.485 15 70 C13.35 69.67 11.7 69.34 10 69 C10.34933594 68.05898437 10.69867188 67.11796875 11.05859375 66.1484375 C11.51850345 64.89072526 11.97812347 63.63290707 12.4375 62.375 C12.88996094 61.14523438 13.34242187 59.91546875 13.80859375 58.6484375 C15.69885608 52.85989647 16.11980463 47.6992904 16.0625 41.625 C16.05347656 40.37976563 16.04445313 39.13453125 16.03515625 37.8515625 C16.02355469 36.91054687 16.01195313 35.96953125 16 35 C15.34 35 14.68 35 14 35 C13.01 31.37 12.02 27.74 11 24 C10.34 24 9.68 24 9 24 C8.773125 23.113125 8.54625 22.22625 8.3125 21.3125 C6.82660279 17.56237847 4.89629259 15.74385614 2 13 C2 12.34 2 11.68 2 11 C1.401875 10.896875 0.80375 10.79375 0.1875 10.6875 C-2 10 -2 10 -3.359375 8.59375 C-9.94297056 2.19825717 -20.13337427 2.44211758 -28.71337891 2.52587891 C-38.70771261 2.86399755 -45.12074162 6.09055622 -53 12 C-53.66 12 -54.32 12 -55 12 C-55 12.66 -55 13.32 -55 14 C-55.66 14 -56.32 14 -57 14 C-57 14.66 -57 15.32 -57 16 C-57.66 16 -58.32 16 -59 16 C-59.33 17.65 -59.66 19.3 -60 21 C-60.99 21.33 -61.98 21.66 -63 22 C-64.70855022 25.00007271 -64.70855022 25.00007271 -66 28 C-67.98 27.67 -69.96 27.34 -72 27 C-72 25.02 -72 23.04 -72 21 C-72.66 21 -73.32 21 -74 21 C-74 21.66 -74 22.32 -74 23 C-74.99 22.67 -75.98 22.34 -77 22 C-76.34 22 -75.68 22 -75 22 C-74.67 21.01 -74.34 20.02 -74 19 C-73.34 19 -72.68 19 -72 19 C-71.7525 18.4225 -71.505 17.845 -71.25 17.25 C-69.81700012 14.67060021 -68.21575324 12.93878408 -66 11 C-65.34 11 -64.68 11 -64 11 C-64 10.34 -64 9.68 -64 9 C-57.04688835 2.71429 -50.03544568 -1.44679207 -41 -4 C-39.88882813 -4.35191406 -38.77765625 -4.70382813 -37.6328125 -5.06640625 C-24.66975439 -8.3977728 -11.93533896 -5.48533319 0 0 Z " fill="#F09C08" transform="translate(100,37)"/>
<path d="M0 0 C3.80640766 2.48305845 6.54508775 4.63526324 8 9 C8.09179741 10.43394477 8.13066539 11.87171527 8.1328125 13.30859375 C8.13474609 14.55286133 8.13474609 14.55286133 8.13671875 15.82226562 C8.13285156 16.68529297 8.12898438 17.54832031 8.125 18.4375 C8.13080078 19.72624023 8.13080078 19.72624023 8.13671875 21.04101562 C8.13542969 21.87181641 8.13414063 22.70261719 8.1328125 23.55859375 C8.13168457 24.31454834 8.13055664 25.07050293 8.12939453 25.84936523 C7.99540636 28.07634976 7.77101774 29.90284284 7 32 C6.01 32.66 5.02 33.32 4 34 C3.34 34.99 2.68 35.98 2 37 C-4.28410183 39.09470061 -12.188649 38.92649077 -18.5 36.875 C-22.62919309 34.66293227 -24.38652536 32.83854088 -27 29 C-27 28.34 -27 27.68 -27 27 C-27.66 27 -28.32 27 -29 27 C-30.69732583 21.15674713 -31.28956061 14.31754183 -29.05859375 8.578125 C-22.44374729 -2.45353116 -11.63499234 -4.43336917 0 0 Z " fill="#B52605" transform="translate(83,67)"/>
<path d="M0 0 C2.59432413 2.59432413 2.29814631 3.70015582 2.3125 7.3125 C2.17692297 15.96857202 0.20120466 23.99698835 -3 32 C-3 32.66 -3 33.32 -3 34 C-2.01 34 -1.02 34 0 34 C0.495 33.01 0.495 33.01 1 32 C1.66 32 2.32 32 3 32 C3.28875 31.05125 3.5775 30.1025 3.875 29.125 C5 26 5 26 7 24 C7.804375 23.896875 8.60875 23.79375 9.4375 23.6875 C10.283125 23.460625 11.12875 23.23375 12 23 C12.45375 22.195625 12.9075 21.39125 13.375 20.5625 C15 18 15 18 18.6875 16.6875 C19.780625 16.460625 20.87375 16.23375 22 16 C22 15.34 22 14.68 22 14 C23.32 13.34 24.64 12.68 26 12 C25.47470631 16.1088041 24.33192009 18.25519841 21.5625 21.3125 C20.63630859 22.35857422 20.63630859 22.35857422 19.69140625 23.42578125 C18 25 18 25 16 25 C15.95875 25.5775 15.9175 26.155 15.875 26.75 C14.56877052 30.10887581 11.97815968 31.0729555 9 33 C7.64843325 34.65191491 6.31037934 36.31522656 5 38 C4.34 38 3.68 38 3 38 C3 38.66 3 39.32 3 40 C1.34997172 41.35386936 -0.3174387 42.68678142 -2 44 C-2.495 44.99 -2.495 44.99 -3 46 C-3.66 46 -4.32 46 -5 46 C-5 46.66 -5 47.32 -5 48 C-14.72873824 57.49982675 -27.7542123 61.94715654 -41.0625 62.25 C-46.29834431 62.13661229 -51.00516259 61.57555274 -56 60 C-57.36898437 59.57460937 -57.36898437 59.57460937 -58.765625 59.140625 C-65.10819865 56.84932876 -70.10581986 53.71276901 -75.25 49.4375 C-75.82331055 48.96642822 -76.39662109 48.49535645 -76.98730469 48.01000977 C-78.578125 46.62109375 -78.578125 46.62109375 -81 44 C-81 42.68 -81 41.36 -81 40 C-79.02 40.33 -77.04 40.66 -75 41 C-74.67 41.99 -74.34 42.98 -74 44 C-73.34 44 -72.68 44 -72 44 C-71.67 43.01 -71.34 42.02 -71 41 C-69.43479689 42.99207669 -68.12064128 44.66823648 -67.25 47.0625 C-65.28287211 50.11154822 -62.29852387 50.69196467 -59 52 C-57.66209359 52.99387334 -56.32781878 53.9926892 -55 55 C-52.03079333 55.96244895 -49.47888853 56.07393298 -46.375 55.9140625 C-45.06789063 55.84832031 -45.06789063 55.84832031 -43.734375 55.78125 C-42.83203125 55.7296875 -41.9296875 55.678125 -41 55.625 C-40.09765625 55.58117187 -39.1953125 55.53734375 -38.265625 55.4921875 C-34.37408155 55.28494554 -30.7668018 55.0524255 -27 54 C-27 53.34 -27 52.68 -27 52 C-26.0925 51.5875 -25.185 51.175 -24.25 50.75 C-21.19047606 49.10256403 -19.38114082 47.46618157 -17 45 C-16.34 45 -15.68 45 -15 45 C-15 43.02 -15 41.04 -15 39 C-14.01 39 -13.02 39 -12 39 C-11.896875 38.113125 -11.79375 37.22625 -11.6875 36.3125 C-10.96353911 32.82432483 -9.84972246 31.01436253 -8 28 C-3.70810673 19.7991333 -3.24257069 12.09640083 -3 3 C-2.67 3 -2.34 3 -2 3 C-1.505 5.475 -1.505 5.475 -1 8 C-0.67 5.36 -0.34 2.72 0 0 Z " fill="#E97C0C" transform="translate(115,72)"/>
<path d="M0 0 C0.66 0 1.32 0 2 0 C3.32 2.64 4.64 5.28 6 8 C6.66 7.34 7.32 6.68 8 6 C9.98821313 5.60235737 11.98944339 5.26224651 14 5 C14 4.34 14 3.68 14 3 C19.28139679 4.48539285 23.28054101 8.08672304 27 12 C27 12.66 27 13.32 27 14 C27.61875 14.28875 28.2375 14.5775 28.875 14.875 C31 16 31 16 33 18 C33.484375 20.05859375 33.484375 20.05859375 33.75 22.4375 C33.84796875 23.21996094 33.9459375 24.00242187 34.046875 24.80859375 C34 27 34 27 32 30 C31.67 29.01 31.34 28.02 31 27 C30.01 27.33 29.02 27.66 28 28 C28 28.66 28 29.32 28 30 C26.63875 30.5878125 26.63875 30.5878125 25.25 31.1875 C21.90843592 32.77495823 21.90843592 32.77495823 20 35.5625 C18 38 18 38 14.9375 38.9375 C11.69668344 39.76016332 11.69668344 39.76016332 10.125 43.125 C9.75375 44.07375 9.3825 45.0225 9 46 C8.34 46 7.68 46 7 46 C6.67 46.99 6.34 47.98 6 49 C4.35 48.67 2.7 48.34 1 48 C1.52400391 46.58847656 1.52400391 46.58847656 2.05859375 45.1484375 C2.51850345 43.89072526 2.97812347 42.63290707 3.4375 41.375 C4.11619141 39.53035156 4.11619141 39.53035156 4.80859375 37.6484375 C6.69885608 31.85989647 7.11980463 26.6992904 7.0625 20.625 C7.04896484 18.75714844 7.04896484 18.75714844 7.03515625 16.8515625 C7.02355469 15.91054687 7.01195313 14.96953125 7 14 C6.34 14 5.68 14 5 14 C4.01 10.37 3.02 6.74 2 3 C1.34 3 0.68 3 0 3 C0 2.01 0 1.02 0 0 Z " fill="#F09206" transform="translate(109,58)"/>
<path d="M0 0 C0.87237305 0.00064453 1.74474609 0.00128906 2.64355469 0.00195312 C10.06123586 0.172222 15.75078802 1.80126148 22.25 5.5 C22.25 6.16 22.25 6.82 22.25 7.5 C23.5184375 7.7475 23.5184375 7.7475 24.8125 8 C29.46555516 10.03042407 32.60632499 13.15905435 35.25 17.5 C35.4453125 20.26171875 35.4453125 20.26171875 35.25 22.5 C35.91 22.5 36.57 22.5 37.25 22.5 C42.80614157 30.83421236 41.09947737 40.04095466 40.25 49.5 C39.92 49.5 39.59 49.5 39.25 49.5 C39.23582031 48.71238281 39.22164063 47.92476562 39.20703125 47.11328125 C38.76011958 36.90678489 36.51148302 27.72048502 30.25 19.5 C30.25 18.84 30.25 18.18 30.25 17.5 C29.6725 17.231875 29.095 16.96375 28.5 16.6875 C26.19449957 15.47070811 24.22943808 14.19666121 22.25 12.5 C22.25 11.84 22.25 11.18 22.25 10.5 C21.51394531 10.30664062 20.77789062 10.11328125 20.01953125 9.9140625 C19.04371094 9.65367188 18.06789062 9.39328125 17.0625 9.125 C16.09957031 8.86976562 15.13664062 8.61453125 14.14453125 8.3515625 C11.25 7.5 11.25 7.5 8.70703125 6.41796875 C1.06402097 3.56247206 -8.43640899 5.39944944 -15.75 8.5 C-22.02655677 12.25102931 -27.51343809 16.51037799 -31.75 22.5 C-31.75 22.83 -31.75 23.16 -31.75 23.5 C-28.78 21.025 -28.78 21.025 -25.75 18.5 C-27.56309003 22.27727089 -29.6573259 25.87269822 -31.75 29.5 C-32.41 29.5 -33.07 29.5 -33.75 29.5 C-33.77895225 32.79164829 -33.7967823 36.08326399 -33.8125 39.375 C-33.82087891 40.31214844 -33.82925781 41.24929687 -33.83789062 42.21484375 C-33.84272461 43.55869141 -33.84272461 43.55869141 -33.84765625 44.9296875 C-33.85551147 46.17081299 -33.85551147 46.17081299 -33.86352539 47.43701172 C-33.88352138 49.56411757 -33.88352138 49.56411757 -32.75 51.5 C-32.710008 53.49960012 -32.70653201 55.50047242 -32.75 57.5 C-32.09 57.5 -31.43 57.5 -30.75 57.5 C-27.75 63.25 -27.75 63.25 -27.75 65.5 C-27.09 65.5 -26.43 65.5 -25.75 65.5 C-25.75 66.82 -25.75 68.14 -25.75 69.5 C-24.1 70.16 -22.45 70.82 -20.75 71.5 C-20.75 72.16 -20.75 72.82 -20.75 73.5 C-17.16247258 75.36551426 -13.47187807 76.92535928 -9.75 78.5 C-12.2167645 79.38336837 -13.38859372 79.6312406 -15.890625 78.72265625 C-16.58671875 78.33980469 -17.2828125 77.95695312 -18 77.5625 C-18.70640625 77.18222656 -19.4128125 76.80195312 -20.140625 76.41015625 C-20.67171875 76.10980469 -21.2028125 75.80945313 -21.75 75.5 C-21.75 74.84 -21.75 74.18 -21.75 73.5 C-22.41 73.5 -23.07 73.5 -23.75 73.5 C-23.75 72.84 -23.75 72.18 -23.75 71.5 C-24.306875 71.29375 -24.86375 71.0875 -25.4375 70.875 C-30.7283198 67.72910715 -33.22663046 63.31650188 -34.75 57.5 C-35.41 57.5 -36.07 57.5 -36.75 57.5 C-37.08 54.86 -37.41 52.22 -37.75 49.5 C-38.41 49.5 -39.07 49.5 -39.75 49.5 C-40.08328851 40.93325085 -39.86584616 33.54926924 -36.75 25.5 C-36.09 25.5 -35.43 25.5 -34.75 25.5 C-34.68941406 24.87351562 -34.62882812 24.24703125 -34.56640625 23.6015625 C-34.48261719 22.78429687 -34.39882813 21.96703125 -34.3125 21.125 C-34.19068359 19.90683594 -34.19068359 19.90683594 -34.06640625 18.6640625 C-33.75 16.5 -33.75 16.5 -32.75 14.5 C-32.09 14.5 -31.43 14.5 -30.75 14.5 C-30.75 13.84 -30.75 13.18 -30.75 12.5 C-30.09 12.5 -29.43 12.5 -28.75 12.5 C-28.75 11.84 -28.75 11.18 -28.75 10.5 C-26.625 8.87890625 -26.625 8.87890625 -23.75 7.0625 C-22.821875 6.46566406 -21.89375 5.86882813 -20.9375 5.25390625 C-13.92799697 1.39696157 -8.00722942 -0.05537078 0 0 Z " fill="#C84B02" transform="translate(73.75,38.5)"/>
<path d="M0 0 C5.53846154 0.61538462 5.53846154 0.61538462 7.875 2.5625 C8.431875 3.2740625 8.431875 3.2740625 9 4 C10.32 3.34 11.64 2.68 13 2 C13.4125 2.45375 13.825 2.9075 14.25 3.375 C16.19019186 5.32917823 16.19019186 5.32917823 20 7 C20 11.62 20 16.24 20 21 C19.01 21 18.02 21 17 21 C16.566875 22.2065625 16.566875 22.2065625 16.125 23.4375 C15 26 15 26 13 27 C11.23229673 27.12240135 9.45939538 27.17551153 7.6875 27.1875 C6.27017578 27.20876953 6.27017578 27.20876953 4.82421875 27.23046875 C0.13868089 26.84810812 -3.13718083 25.4081977 -6.3125 21.9375 C-9.34250106 18.26430179 -9.53682271 15.37040008 -9.2109375 10.72265625 C-9.14132813 10.15417969 -9.07171875 9.58570312 -9 9 C-8.34 9 -7.68 9 -7 9 C-6.87625 8.38125 -6.7525 7.7625 -6.625 7.125 C-6 5 -6 5 -4 3 C-1.375 2.375 -1.375 2.375 1 2 C0.67 1.34 0.34 0.68 0 0 Z " fill="#AA0902" transform="translate(70,70)"/>
<path d="M0 0 C3.0625 1.4375 3.0625 1.4375 5 4 C5.7089417 7.46854123 5.72366645 10.53313283 5 14 C2.5625 17.0625 2.5625 17.0625 0 19 C-0.33 19.33 -0.66 19.66 -1 20 C-8.07616708 20.58968059 -8.07616708 20.58968059 -11.9375 18.125 C-14.80293378 15.17273489 -15.15459124 13.57078734 -15.1875 9.5625 C-15.20167969 8.78003906 -15.21585937 7.99757813 -15.23046875 7.19140625 C-15 5 -15 5 -13 2 C-12.34 2 -11.68 2 -11 2 C-11 1.34 -11 0.68 -11 0 C-7.4854834 -1.7572583 -3.74124986 -0.79985342 0 0 Z " fill="#D77C05" transform="translate(99,10)"/>
<path d="M0 0 C3.53096422 0.17654821 5.67302571 0.51714253 8.75 2.1875 C11.44037165 6.22305748 11.30800105 9.44865525 10.75 14.1875 C9.36019502 17.15662882 8.05342972 18.88407028 5.75 21.1875 C-2.95638298 21.74920213 -2.95638298 21.74920213 -6.25 19.1875 C-9.1430899 15.67446227 -9.82621989 12.55928349 -9.68359375 8.12109375 C-8.94739492 4.83804492 -6.78377073 3.22687644 -4.25 1.1875 C-3.25 0.1875 -3.25 0.1875 0 0 Z " fill="#D87C05" transform="translate(126.25,29.8125)"/>
<path d="M0 0 C2.20914 3.31371 2.22481553 4.3446021 2.125 8.1875 C2.10695313 9.08855469 2.08890625 9.98960938 2.0703125 10.91796875 C2.04710938 11.60503906 2.02390625 12.29210938 2 13 C1.34 13 0.68 13 0 13 C0 13.66 0 14.32 0 15 C-1.32 15.33 -2.64 15.66 -4 16 C-4 16.66 -4 17.32 -4 18 C-8.81570201 18.41514672 -11.1532272 18.43850734 -15.5 16.1875 C-18.26275375 13.56061938 -18.4752938 11.17017469 -18.625 7.4375 C-18.42526756 3.90413802 -18.23610418 2.35415627 -16.25 -0.625 C-10.9003266 -3.89424486 -5.31992353 -3.41995084 0 0 Z " fill="#D57C08" transform="translate(28,33)"/>
<path d="M0 0 C0.33 0.66 0.66 1.32 1 2 C1.66 2 2.32 2 3 2 C3 1.34 3 0.68 3 0 C4.8125 0.5 4.8125 0.5 7 2 C11.06362462 9.69186088 11.35965534 18.96033865 9 27.3125 C8.67 28.199375 8.34 29.08625 8 30 C7.34 30 6.68 30 6 30 C5.814375 30.70125 5.62875 31.4025 5.4375 32.125 C3.45179974 36.09640051 0.46066724 38.3073418 -3 41 C-3.33 39.68 -3.66 38.36 -4 37 C-2.68 37 -1.36 37 0 37 C-0.33 35.68 -0.66 34.36 -1 33 C-0.34 33 0.32 33 1 33 C0.67 25.74 0.34 18.48 0 11 C-0.99 10.67 -1.98 10.34 -3 10 C-3 9.34 -3 8.68 -3 8 C-3.598125 7.731875 -4.19625 7.46375 -4.8125 7.1875 C-7 6 -7 6 -10 3 C-5.05 1.515 -5.05 1.515 0 0 Z " fill="#D0620B" transform="translate(90,62)"/>
<path d="M0 0 C3 1.3125 3 1.3125 5 3 C6.23671367 6.71014101 6.56368603 10.14438758 6 14 C4.20636089 16.8100346 2.98119065 18.50940468 0 20 C-3.40551807 20.46870371 -6.60302037 20.56433694 -10 20 C-13.27282439 16.88302439 -14.21008559 14.27821482 -14.375 9.875 C-13.8590998 4.54403131 -13.8590998 4.54403131 -12 2 C-7.95924984 -0.69383344 -4.74318059 -0.54921038 0 0 Z " fill="#D57A05" transform="translate(58,10)"/>
<path d="M0 0 C1.11375 0.7425 1.11375 0.7425 2.25 1.5 C1.92 2.16 1.59 2.82 1.25 3.5 C0.425 3.17 -0.4 2.84 -1.25 2.5 C-6.57911862 0.97739468 -10.76272951 0.77388194 -16 2.6875 C-20.11559187 5.40004919 -22.99349616 8.89490514 -24.75 13.5 C-24.88997227 16.28824758 -24.9388913 18.96827116 -24.875 21.75 C-24.86146484 22.86761719 -24.86146484 22.86761719 -24.84765625 24.0078125 C-24.82418358 25.83868059 -24.78831525 27.66938238 -24.75 29.5 C-24.09 29.5 -23.43 29.5 -22.75 29.5 C-21.8059153 30.75683102 -20.91868119 32.05671554 -20.0625 33.375 C-17.95625253 36.22700016 -16.93760143 37.40811359 -13.6875 39 C-4.33785264 40.18725681 3.08860128 40.58162562 11.25 35.5 C11.91 35.17 12.57 34.84 13.25 34.5 C13.25 35.82 13.25 37.14 13.25 38.5 C4.92850185 42.74927565 -5.499394 42.85618155 -14.55859375 40.890625 C-17.48316581 39.8388523 -19.54582746 38.70417254 -21.75 36.5 C-21.75 35.51 -21.75 34.52 -21.75 33.5 C-24.10367713 32.8121764 -24.10367713 32.8121764 -26.75 32.5 C-27.74 33.16 -28.73 33.82 -29.75 34.5 C-32.20005833 30.82491251 -32.08189544 28.0014806 -32.0625 23.75 C-32.07861328 23.0590625 -32.09472656 22.368125 -32.11132812 21.65625 C-32.1181328 14.4160788 -29.78095201 8.85552956 -24.75 3.5 C-24.09 3.5 -23.43 3.5 -22.75 3.5 C-22.42 2.51 -22.09 1.52 -21.75 0.5 C-15.66571724 -2.62436142 -6.20486168 -3.11720432 0 0 Z " fill="#EBE2E0" transform="translate(78.75,64.5)"/>
<path d="M0 0 C0.48210938 0.42152344 0.96421875 0.84304687 1.4609375 1.27734375 C2.09257813 1.82519531 2.72421875 2.37304688 3.375 2.9375 C4.00148438 3.48277344 4.62796875 4.02804688 5.2734375 4.58984375 C6.95632334 6.06958624 6.95632334 6.06958624 9 7 C9 7.66 9 8.32 9 9 C9.66 9 10.32 9 11 9 C11 9.66 11 10.32 11 11 C11.804375 11.268125 12.60875 11.53625 13.4375 11.8125 C15.28923597 12.42974532 17.14035726 13.05777759 18.9453125 13.80078125 C25.62075406 16.39952326 31.90540454 16.29606503 39 16 C33.555 15.505 33.555 15.505 28 15 C28 14.34 28 13.68 28 13 C29.01578125 13.05800781 30.0315625 13.11601563 31.078125 13.17578125 C42.81770332 13.63946812 51.74915442 11.80071303 61 4 C61.66 4.33 62.32 4.66 63 5 C62.67 5.99 62.34 6.98 62 8 C61.01 8 60.02 8 59 8 C59.495 9.485 59.495 9.485 60 11 C59 13 59 13 57.15234375 13.6328125 C56.42144531 13.79523438 55.69054687 13.95765625 54.9375 14.125 C54.20402344 14.29257813 53.47054687 14.46015625 52.71484375 14.6328125 C52.14894531 14.75398438 51.58304688 14.87515625 51 15 C51.66 15.66 52.32 16.32 53 17 C43.9524332 22.33330254 33.17027894 22.24542644 23 21 C17.02245254 19.39865293 11.74069009 17.0220787 7 13 C6.375 10.875 6.375 10.875 6 9 C5.34 8.67 4.68 8.34 4 8 C4 7.01 4 6.02 4 5 C3.34 5 2.68 5 2 5 C1.34 3.35 0.68 1.7 0 0 Z " fill="#E7AC28" transform="translate(41,103)"/>
<path d="M0 0 C3.80640766 2.48305845 6.54508775 4.63526324 8 9 C8.09179741 10.43394477 8.13066539 11.87171527 8.1328125 13.30859375 C8.13474609 14.55286133 8.13474609 14.55286133 8.13671875 15.82226562 C8.13285156 16.68529297 8.12898438 17.54832031 8.125 18.4375 C8.13080078 19.72624023 8.13080078 19.72624023 8.13671875 21.04101562 C8.13542969 21.87181641 8.13414063 22.70261719 8.1328125 23.55859375 C8.13168457 24.31454834 8.13055664 25.07050293 8.12939453 25.84936523 C7.99540636 28.07634976 7.77101774 29.90284284 7 32 C6.01 32.66 5.02 33.32 4 34 C3.34 34.99 2.68 35.98 2 37 C0.35 36.34 -1.3 35.68 -3 35 C-3 34.01 -3 33.02 -3 32 C-2.071875 31.608125 -1.14375 31.21625 -0.1875 30.8125 C3.39948157 28.77284381 4.29497397 27.69422307 6 24 C6.36118491 20.41771784 6.36118491 20.41771784 6.1875 16.6875 C6.16042969 15.43324219 6.13335937 14.17898437 6.10546875 12.88671875 C6.07066406 11.93410156 6.03585938 10.98148438 6 10 C5.195625 9.731875 4.39125 9.46375 3.5625 9.1875 C2.716875 8.795625 1.87125 8.40375 1 8 C0.67 7.01 0.34 6.02 0 5 C-1.32 5.99 -2.64 6.98 -4 8 C-4.763125 7.34 -5.52625 6.68 -6.3125 6 C-8.84277939 3.70149462 -8.84277939 3.70149462 -12 4 C-11.34 4.66 -10.68 5.32 -10 6 C-11.051875 6.103125 -12.10375 6.20625 -13.1875 6.3125 C-16.87430754 6.97733415 -18.96638599 7.88566296 -22 10 C-21.67 8.35 -21.34 6.7 -21 5 C-21.66 5 -22.32 5 -23 5 C-23 5.66 -23 6.32 -23 7 C-23.66 7 -24.32 7 -25 7 C-24.67 7.99 -24.34 8.98 -24 10 C-24.99 11.485 -24.99 11.485 -26 13 C-27.32 13 -28.64 13 -30 13 C-28.65226356 7.47428058 -26.0704604 3.84714337 -22 0 C-15.77000711 -3.77078517 -6.59648443 -2.51350838 0 0 Z " fill="#B8260E" transform="translate(83,67)"/>
<path d="M0 0 C0.875 2.6875 0.875 2.6875 1 5 C-0.32 5 -1.64 5 -3 5 C-3 4.34 -3 3.68 -3 3 C-4.32 3 -5.64 3 -7 3 C-7.33 3.99 -7.66 4.98 -8 6 C-11.18424392 4.99036168 -14.05461695 3.97041582 -17 2.375 C-23.26178442 -0.33843992 -31.1150341 0.02875853 -37.625 1.65625 C-44.2841569 4.33841042 -50.02829433 9.04244149 -54 15 C-54.66 14.67 -55.32 14.34 -56 14 C-50.49162137 4.42021107 -41.713128 -2.12654128 -31.1875 -5.25 C-20.68906802 -7.53048131 -9.04799884 -6.03199923 0 0 Z " fill="#ECE8E5" transform="translate(96,49)"/>
<path d="M0 0 C4.63035223 1.61453071 7.42554782 3.16743244 10.71875 6.84765625 C11.63914062 7.84732422 11.63914062 7.84732422 12.578125 8.8671875 C14.24160439 11.46053317 14.24315795 13.01139167 13.96875 16.03515625 C14.62875 16.03515625 15.28875 16.03515625 15.96875 16.03515625 C21.52489157 24.36936861 19.81822737 33.57611091 18.96875 43.03515625 C18.63875 43.03515625 18.30875 43.03515625 17.96875 43.03515625 C17.95457031 42.24753906 17.94039062 41.45992187 17.92578125 40.6484375 C17.47886958 30.44194114 15.23023302 21.25564127 8.96875 13.03515625 C8.96875 12.37515625 8.96875 11.71515625 8.96875 11.03515625 C8.39125 10.76703125 7.81375 10.49890625 7.21875 10.22265625 C4.91324957 9.00586436 2.94818808 7.73181746 0.96875 6.03515625 C0.96875 5.37515625 0.96875 4.71515625 0.96875 4.03515625 C0.23269531 3.84179688 -0.50335938 3.6484375 -1.26171875 3.44921875 C-2.23753906 3.18882813 -3.21335938 2.9284375 -4.21875 2.66015625 C-5.18167969 2.40492187 -6.14460938 2.1496875 -7.13671875 1.88671875 C-10.03125 1.03515625 -10.03125 1.03515625 -12.57421875 -0.05078125 C-20.21671939 -2.89393729 -29.32066475 -0.63522199 -37.03125 1.03515625 C-36.70125 0.37515625 -36.37125 -0.28484375 -36.03125 -0.96484375 C-35.37125 -0.96484375 -34.71125 -0.96484375 -34.03125 -0.96484375 C-34.03125 -1.62484375 -34.03125 -2.28484375 -34.03125 -2.96484375 C-25.17377989 -7.3935788 -9.07730185 -2.6408522 0 0 Z " fill="#C6610F" transform="translate(95.03125,44.96484375)"/>
<path d="M0 0 C1.25 1.9375 1.25 1.9375 2 4 C2.66 4.66 3.32 5.32 4 6 C-4.77947154 11.1351626 -4.77947154 11.1351626 -10.66796875 11.09765625 C-11.56064453 11.09443359 -12.45332031 11.09121094 -13.37304688 11.08789062 C-14.76620117 11.07532227 -14.76620117 11.07532227 -16.1875 11.0625 C-17.59805664 11.05573242 -17.59805664 11.05573242 -19.03710938 11.04882812 C-21.35813712 11.03704626 -23.67903644 11.02059558 -26 11 C-26 10.34 -26 9.68 -26 9 C-25.34 9 -24.68 9 -24 9 C-23.67 7.68 -23.34 6.36 -23 5 C-21.71802734 4.70996094 -21.71802734 4.70996094 -20.41015625 4.4140625 C-19.30542969 4.15367188 -18.20070313 3.89328125 -17.0625 3.625 C-15.96035156 3.36976562 -14.85820313 3.11453125 -13.72265625 2.8515625 C-12.82417969 2.57054688 -11.92570312 2.28953125 -11 2 C-10.67 1.34 -10.34 0.68 -10 0 C-6.53148818 -1.41309741 -3.5508708 -1.00350697 0 0 Z " fill="#FBFBFA" transform="translate(96,104)"/>
<path d="M0 0 C6.34652513 1.03159066 12.08786166 3.58170739 16.125 8.6875 C16.41375 9.450625 16.7025 10.21375 17 11 C16.67 11.66 16.34 12.32 16 13 C15.01 12.67 14.02 12.34 13 12 C11.948125 12.33 10.89625 12.66 9.8125 13 C6.19078802 13.94995724 3.95125477 13.8938582 0.3125 13.296875 C-6.09490627 12.47430257 -12.70294113 12.54948918 -19 14 C-18.67 12.68 -18.34 11.36 -18 10 C-9.585 9.505 -9.585 9.505 -1 9 C-1.66 8.34 -2.32 7.68 -3 7 C-2.34 6.01 -1.68 5.02 -1 4 C1.625 3.8125 1.625 3.8125 4 4 C4 3.34 4 2.68 4 2 C2.68 2 1.36 2 0 2 C0 1.34 0 0.68 0 0 Z " fill="#D8730A" transform="translate(77,51)"/>
<path d="M0 0 C0.87237305 0.00064453 1.74474609 0.00128906 2.64355469 0.00195312 C10.06123586 0.172222 15.75078802 1.80126148 22.25 5.5 C22.25 5.83 22.25 6.16 22.25 6.5 C18.94749223 6.66109794 16.41439612 6.55308625 13.25 5.53125 C8.19880144 4.02384876 3.0481105 4.03850638 -2.1875 3.875 C-3.20521484 3.83632813 -4.22292969 3.79765625 -5.27148438 3.7578125 C-7.76414936 3.66419128 -10.2568195 3.57846007 -12.75 3.5 C-12.75 4.16 -12.75 4.82 -12.75 5.5 C-22.00352113 13.8722334 -22.00352113 13.8722334 -26.9375 15 C-29.51928509 15.71221658 -30.24078802 17.37338312 -31.75 19.5 C-32.41 19.5 -33.07 19.5 -33.75 19.5 C-33.42 17.85 -33.09 16.2 -32.75 14.5 C-32.09 14.5 -31.43 14.5 -30.75 14.5 C-30.75 13.84 -30.75 13.18 -30.75 12.5 C-30.09 12.5 -29.43 12.5 -28.75 12.5 C-28.75 11.84 -28.75 11.18 -28.75 10.5 C-26.625 8.87890625 -26.625 8.87890625 -23.75 7.0625 C-22.821875 6.46566406 -21.89375 5.86882813 -20.9375 5.25390625 C-13.92799697 1.39696157 -8.00722942 -0.05537078 0 0 Z " fill="#DB6F01" transform="translate(73.75,38.5)"/>
<path d="M0 0 C0.73828125 1.703125 0.73828125 1.703125 1 4 C-0.58203125 6.359375 -0.58203125 6.359375 -2.8125 8.75 C-3.54082031 9.54921875 -4.26914063 10.3484375 -5.01953125 11.171875 C-7 13 -7 13 -9 13 C-9.04125 13.5775 -9.0825 14.155 -9.125 14.75 C-10.43122948 18.10887581 -13.02184032 19.0729555 -16 21 C-17.35156675 22.65191491 -18.68962066 24.31522656 -20 26 C-20.66 26 -21.32 26 -22 26 C-22 26.66 -22 27.32 -22 28 C-24 29.625 -24 29.625 -26 31 C-26 30.01 -26 29.02 -26 28 C-26.66 28 -27.32 28 -28 28 C-28 27.34 -28 26.68 -28 26 C-27.34 26 -26.68 26 -26 26 C-25.67 25.01 -25.34 24.02 -25 23 C-24.236875 22.608125 -23.47375 22.21625 -22.6875 21.8125 C-19.34878274 19.56080697 -18.50065086 17.38652819 -16.9921875 13.7421875 C-16 12 -16 12 -13 11 C-12.5875 10.195625 -12.175 9.39125 -11.75 8.5625 C-9.36341196 5.06785323 -7.03424517 4.83729617 -3 4 C-3 3.34 -3 2.68 -3 2 C-2.01 1.34 -1.02 0.68 0 0 Z " fill="#E66D0F" transform="translate(140,84)"/>
<path d="M0 0 C1.98 0.495 1.98 0.495 4 1 C4 1.66 4 2.32 4 3 C4.99 3.33 5.98 3.66 7 4 C7.22786458 5.98567708 7.45572917 7.97135417 7.68359375 9.95703125 C7.97170735 12.19396393 7.97170735 12.19396393 9 15 C9.66 15 10.32 15 11 15 C11.2475 15.804375 11.495 16.60875 11.75 17.4375 C12.72238859 20.171081 12.72238859 20.171081 15.125 20.8125 C16.053125 20.9053125 16.053125 20.9053125 17 21 C17 23.31 17 25.62 17 28 C13.6712479 26.89041597 12.98510301 26.07455496 10.8125 23.4375 C8.24402497 20.35313469 5.56857023 17.71679605 2.5625 15.0625 C0.31207349 12.86855138 -0.85571104 11.65139147 -1.5390625 8.56640625 C-1.56977772 5.3669041 -1.43970619 2.87941238 0 0 Z " fill="#E7770C" transform="translate(7,76)"/>
<path d="M0 0 C0.33 0.99 0.66 1.98 1 3 C1.5775 2.79375 2.155 2.5875 2.75 2.375 C5.51967567 1.91338739 6.64561267 2.57055055 9 4 C9 4.66 9 5.32 9 6 C7.8553125 7.0828125 7.8553125 7.0828125 6.6875 8.1875 C0.30217724 14.86981451 0.3868731 22.1285997 0 31 C-0.66 31 -1.32 31 -2 31 C-2 25.72 -2 20.44 -2 15 C-3.32 15.33 -4.64 15.66 -6 16 C-5.82774538 9.09415557 -4.41875491 5.32516617 0 0 Z " fill="#E28306" transform="translate(47,62)"/>
<path d="M0 0 C0 0.66 0 1.32 0 2 C-0.66 2 -1.32 2 -2 2 C-2 2.66 -2 3.32 -2 4 C-11.72873824 13.49982675 -24.7542123 17.94715654 -38.0625 18.25 C-45.47097067 18.11685675 -52.04525801 16.49657405 -59 14 C-56.27980552 12.95377135 -55.17183283 12.93681483 -52.38671875 13.9609375 C-48.28281684 15.22003543 -44.69765506 15.29464791 -40.4375 15.25 C-39.3247168 15.26160156 -39.3247168 15.26160156 -38.18945312 15.2734375 C-33.94082882 15.25830438 -30.92996801 14.73904508 -27 13 C-24.76171875 12.8046875 -24.76171875 12.8046875 -22.6875 12.875 C-21.470625 12.91625 -20.25375 12.9575 -19 13 C-18.67 12.01 -18.34 11.02 -18 10 C-14.535 9.505 -14.535 9.505 -11 9 C-11 8.34 -11 7.68 -11 7 C-11.99 6.67 -12.98 6.34 -14 6 C-10.77208445 3.8480563 -9.71599191 3.79913557 -6 4 C-6 3.01 -6 2.02 -6 1 C-3 0 -3 0 0 0 Z " fill="#DA7627" transform="translate(112,116)"/>
<path d="M0 0 C0.99 0.33 1.98 0.66 3 1 C3 1.66 3 2.32 3 3 C3.99 3 4.98 3 6 3 C6 3.66 6 4.32 6 5 C4.68 5 3.36 5 2 5 C1.67 5.66 1.34 6.32 1 7 C0.34 7 -0.32 7 -1 7 C-1.33 7.66 -1.66 8.32 -2 9 C-3.9275758 9.25701011 -5.85788189 9.50823526 -7.796875 9.65625 C-10.06633626 9.90959443 -10.06633626 9.90959443 -12.23828125 11.015625 C-16.01575379 12.36205085 -19.45927527 12.29147584 -23.4375 12.25 C-24.17548828 12.25773438 -24.91347656 12.26546875 -25.67382812 12.2734375 C-30.16549563 12.25746713 -33.7704467 11.68914015 -38 10 C-34.46905698 8.79779797 -31.87101018 9.20467651 -28.25 9.9375 C-27.26515625 10.13214844 -26.2803125 10.32679688 -25.265625 10.52734375 C-24.51796875 10.68332031 -23.7703125 10.83929688 -23 11 C-23 10.01 -23 9.02 -23 8 C-21.77023438 7.90912109 -21.77023438 7.90912109 -20.515625 7.81640625 C-18.89914063 7.69072266 -18.89914063 7.69072266 -17.25 7.5625 C-16.18265625 7.48128906 -15.1153125 7.40007812 -14.015625 7.31640625 C-11.56320038 7.05909227 -9.36078709 6.68187782 -7 6 C-7 5.34 -7 4.68 -7 4 C-6.030625 3.525625 -5.06125 3.05125 -4.0625 2.5625 C-1.19522563 1.29806053 -1.19522563 1.29806053 0 0 Z " fill="#ED6C01" transform="translate(95,120)"/>
<path d="M0 0 C9.76900588 1.64987655 15.22963516 6.06128733 22.453125 12.671875 C25.9183592 15.83948172 29.45594277 18.92122403 33 22 C31.02 22.99 31.02 22.99 29 24 C29 23.01 29 22.02 29 21 C27.6078125 20.938125 27.6078125 20.938125 26.1875 20.875 C24.6096875 20.441875 24.6096875 20.441875 23 20 C21.94991347 18.02583732 20.95012124 16.02417134 20 14 C17.55103367 12.46863044 17.55103367 12.46863044 15 12 C14.01 12.495 14.01 12.495 13 13 C13.33 11.68 13.66 10.36 14 9 C11.03 8.67 8.06 8.34 5 8 C5 7.01 5 6.02 5 5 C4.34 4.67 3.68 4.34 3 4 C3.66 4 4.32 4 5 4 C5 3.34 5 2.68 5 2 C3.35 2 1.7 2 0 2 C0 1.34 0 0.68 0 0 Z " fill="#F09A15" transform="translate(91,35)"/>
<path d="M0 0 C0.66 0.66 1.32 1.32 2 2 C-2.62 2.33 -7.24 2.66 -12 3 C-10.02 3.66 -8.04 4.32 -6 5 C-6 5.33 -6 5.66 -6 6 C-6.83402344 6.02578125 -7.66804688 6.0515625 -8.52734375 6.078125 C-20.23406534 6.6681545 -27.78866976 9.51298961 -36 18 C-36.66 18.99 -37.32 19.98 -38 21 C-38.66 20.67 -39.32 20.34 -40 20 C-34.49162137 10.42021107 -25.713128 3.87345872 -15.1875 0.75 C-10.24045291 -0.35152937 -5.03188471 -0.57604067 0 0 Z " fill="#E1D8D6" transform="translate(80,43)"/>
<path d="M0 0 C1.32 0 2.64 0 4 0 C9.83120205 10.35038363 9.83120205 10.35038363 9 17 C8.67 17.66 8.34 18.32 8 19 C8.66 19 9.32 19 10 19 C10.99 15.04 11.98 11.08 13 7 C13.33 7 13.66 7 14 7 C14.47673214 15.58117857 13.17154391 22.85976629 7.5 29.5625 C5.23360188 32.03267515 4.24216195 32.91927935 1 34 C1 32.68 1 31.36 1 30 C2.32 30 3.64 30 5 30 C4.67 28.68 4.34 27.36 4 26 C4.66 26 5.32 26 6 26 C5.67 18.74 5.34 11.48 5 4 C4.01 3.67 3.02 3.34 2 3 C2 2.34 2 1.68 2 1 C1.34 0.67 0.68 0.34 0 0 Z " fill="#CB4E01" transform="translate(85,69)"/>
<path d="M0 0 C0.99 0.33 1.98 0.66 3 1 C2.67 2.65 2.34 4.3 2 6 C1.34 6 0.68 6 0 6 C-0.2165625 7.0828125 -0.2165625 7.0828125 -0.4375 8.1875 C-0.77365716 9.8682858 -1.12317992 11.5466109 -1.5 13.21875 C-2.10462357 16.58196861 -2.33946165 19.90319951 -2.5625 23.3125 C-2.64628906 24.56675781 -2.73007812 25.82101563 -2.81640625 27.11328125 C-2.87699219 28.06589844 -2.93757813 29.01851562 -3 30 C-2.34 30 -1.68 30 -1 30 C-0.67 32.64 -0.34 35.28 0 38 C0.66 38 1.32 38 2 38 C3.485 41.465 3.485 41.465 5 45 C4.34 45.66 3.68 46.32 3 47 C-1.21857794 44.89071103 -2.87275382 39.23981796 -4.42578125 34.99902344 C-7.60853505 23.91892645 -4.6962086 11.56907841 -1 1 C-0.67 0.67 -0.34 0.34 0 0 Z " fill="#DC7604" transform="translate(37,58)"/>
<path d="M0 0 C0.99 0.495 0.99 0.495 2 1 C2.185625 2.2065625 2.185625 2.2065625 2.375 3.4375 C2.58125 4.283125 2.7875 5.12875 3 6 C4.96672915 7.1500831 4.96672915 7.1500831 7 8 C7.33 8.99 7.66 9.98 8 11 C10.01508358 11.73323796 10.01508358 11.73323796 12 12 C12 12.66 12 13.32 12 14 C12.8353125 14.1546875 12.8353125 14.1546875 13.6875 14.3125 C16.4769101 15.14178408 18.6139064 16.34299056 21 18 C21 18.66 21 19.32 21 20 C26.61 20 32.22 20 38 20 C38 20.33 38 20.66 38 21 C33.71923041 21.81600146 29.66857067 22.13511863 25.3125 22.125 C24.19488281 22.12757812 23.07726562 22.13015625 21.92578125 22.1328125 C19 22 19 22 16 21 C16 20.34 16 19.68 16 19 C14.4221875 18.6596875 14.4221875 18.6596875 12.8125 18.3125 C8.82265998 17.16674146 6.54349796 15.33834107 4 12 C4.1875 9.6875 4.1875 9.6875 5 8 C4.01 7.67 3.02 7.34 2 7 C0.8125 3.4375 0.8125 3.4375 0 0 Z " fill="#E57B0E" transform="translate(48,98)"/>
<path d="M0 0 C1.11375 0.7425 1.11375 0.7425 2.25 1.5 C1.92 2.16 1.59 2.82 1.25 3.5 C0.0125 3.005 0.0125 3.005 -1.25 2.5 C-6.57911862 0.97739468 -10.76272951 0.77388194 -16 2.6875 C-19.73305822 5.14792473 -21.84217603 8.10043804 -24.25 11.8125 C-24.9925 12.6478125 -24.9925 12.6478125 -25.75 13.5 C-27.07 13.5 -28.39 13.5 -29.75 13.5 C-30.08 14.16 -30.41 14.82 -30.75 15.5 C-30.34862455 9.88074374 -28.57025541 7.41343237 -24.75 3.5 C-24.09 3.5 -23.43 3.5 -22.75 3.5 C-22.42 2.51 -22.09 1.52 -21.75 0.5 C-15.66571724 -2.62436142 -6.20486168 -3.11720432 0 0 Z " fill="#E6E2DD" transform="translate(78.75,64.5)"/>
<path d="M0 0 C0.99 0.66 1.98 1.32 3 2 C3.29296875 5.2578125 3.29296875 5.2578125 3.1875 9.125 C3.16042969 10.40632813 3.13335937 11.68765625 3.10546875 13.0078125 C3.07066406 13.99523437 3.03585938 14.98265625 3 16 C2.01 16 1.02 16 0 16 C-0.433125 17.2065625 -0.433125 17.2065625 -0.875 18.4375 C-2 21 -2 21 -4 22 C-5.80948495 22.12176503 -7.62396271 22.17545792 -9.4375 22.1875 C-10.40558594 22.20167969 -11.37367187 22.21585938 -12.37109375 22.23046875 C-15 22 -15 22 -18 20 C-16.37549999 18.37549999 -14.42451013 18.68341518 -12.1875 18.5 C-9.01658817 18.23770892 -6.06692788 17.85788192 -3 17 C-2.02584238 13.45441732 -1.48257819 9.88385458 -0.9375 6.25 C-0.76089844 5.07953125 -0.58429688 3.9090625 -0.40234375 2.703125 C-0.26957031 1.81109375 -0.13679688 0.9190625 0 0 Z " fill="#930F01" transform="translate(87,75)"/>
<path d="M0 0 C2.59432413 2.59432413 2.29814631 3.70015582 2.3125 7.3125 C2.19140024 13.99720666 1.41758601 20.7305139 -1 27 C-4.18162839 30 -4.18162839 30 -7 30 C-6.56436214 26.95053499 -6.06570373 24.17863201 -5 21.28125 C-3.86370342 17.55277686 -3.55476853 13.99002338 -3.375 10.125 C-3.33632812 9.43664062 -3.29765625 8.74828125 -3.2578125 8.0390625 C-3.16451834 6.35976754 -3.08121762 4.67992233 -3 3 C-2.67 3 -2.34 3 -2 3 C-1.67 4.65 -1.34 6.3 -1 8 C-0.67 5.36 -0.34 2.72 0 0 Z " fill="#E17802" transform="translate(115,72)"/>
<path d="M0 0 C0.66 0.33 1.32 0.66 2 1 C2 2.65 2 4.3 2 6 C0.02 6.99 0.02 6.99 -2 8 C-2 8.66 -2 9.32 -2 10 C-2.66 10 -3.32 10 -4 10 C-4 10.66 -4 11.32 -4 12 C-4.66 12 -5.32 12 -6 12 C-6.33 13.65 -6.66 15.3 -7 17 C-7.66 16.67 -8.32 16.34 -9 16 C-8.67 14.35 -8.34 12.7 -8 11 C-9.65 11 -11.3 11 -13 11 C-12.5625 8.1875 -12.5625 8.1875 -11 5 C-8.72925157 3.90540482 -6.53508599 3.25888541 -4.09375 2.640625 C-1.80726637 2.1201185 -1.80726637 2.1201185 0 0 Z " fill="#F09906" transform="translate(47,41)"/>
<path d="M0 0 C3.44270451 1.53009089 6.18925822 3.4931222 9 6 C9.92365499 8.77096497 10.12853885 10.44860673 10.1328125 13.30859375 C10.13474609 14.55286133 10.13474609 14.55286133 10.13671875 15.82226562 C10.13285156 16.68529297 10.12898438 17.54832031 10.125 18.4375 C10.12886719 19.29666016 10.13273437 20.15582031 10.13671875 21.04101562 C10.13542969 21.87181641 10.13414063 22.70261719 10.1328125 23.55859375 C10.13168457 24.31454834 10.13055664 25.07050293 10.12939453 25.84936523 C9.99540636 28.07634976 9.77101774 29.90284284 9 32 C8.01 32.66 7.02 33.32 6 34 C5.34 34.99 4.68 35.98 4 37 C2.35 36.34 0.7 35.68 -1 35 C-1 34.01 -1 33.02 -1 32 C-0.071875 31.608125 0.85625 31.21625 1.8125 30.8125 C5.39754434 28.77394538 6.28039216 27.68269997 8 24 C8.47240033 20.48954465 8.47240033 20.48954465 8.375 16.8125 C8.38273437 15.58144531 8.39046875 14.35039063 8.3984375 13.08203125 C8.26695313 12.06496094 8.13546875 11.04789063 8 10 C7.01 9.34 6.02 8.68 5 8 C5 7.01 5 6.02 5 5 C4.360625 4.731875 3.72125 4.46375 3.0625 4.1875 C1 3 1 3 0 0 Z " fill="#BF3904" transform="translate(81,67)"/>
<path d="M0 0 C1.33542524 6.12069902 0.7913741 9.1392285 -2.0078125 14.6796875 C-3.60123272 18.40603241 -3.74459247 21.97733146 -4 26 C-4.33 26 -4.66 26 -5 26 C-5 20.39 -5 14.78 -5 9 C-5.66 9 -6.32 9 -7 9 C-7 7.68 -7 6.36 -7 5 C-7.66 5 -8.32 5 -9 5 C-8.67 4.01 -8.34 3.02 -8 2 C-7.34 2 -6.68 2 -6 2 C-5.34 1.67 -4.68 1.34 -4 1 C-2 0 -2 0 0 0 Z " fill="#F7F9FA" transform="translate(107,62)"/>
<path d="M0 0 C0 0.66 0 1.32 0 2 C-9.25352113 10.3722334 -9.25352113 10.3722334 -14.1875 11.5 C-16.76928509 12.21221658 -17.49078802 13.87338312 -19 16 C-19.66 16 -20.32 16 -21 16 C-20.67 14.35 -20.34 12.7 -20 11 C-19.34 11 -18.68 11 -18 11 C-18 10.34 -18 9.68 -18 9 C-17.34 9 -16.68 9 -16 9 C-16 8.34 -16 7.68 -16 7 C-13.76953125 5.2734375 -13.76953125 5.2734375 -10.8125 3.375 C-9.36810547 2.42753906 -9.36810547 2.42753906 -7.89453125 1.4609375 C-4.91752847 -0.0416253 -3.27364473 -0.32317516 0 0 Z " fill="#DA6C02" transform="translate(61,42)"/>
<path d="M0 0 C0.48210938 0.42152344 0.96421875 0.84304687 1.4609375 1.27734375 C2.09257813 1.82519531 2.72421875 2.37304688 3.375 2.9375 C4.00148438 3.48277344 4.62796875 4.02804688 5.2734375 4.58984375 C6.95632334 6.06958624 6.95632334 6.06958624 9 7 C9 7.66 9 8.32 9 9 C9.66 9 10.32 9 11 9 C11 9.66 11 10.32 11 11 C12.299375 11.433125 12.299375 11.433125 13.625 11.875 C16.75 12.91666667 19.875 13.95833333 23 15 C22.01 15.495 22.01 15.495 21 16 C21 16.99 21 17.98 21 19 C15.58092446 18.59356933 11.06215259 16.5967986 7 13 C6.39453125 10.89453125 6.39453125 10.89453125 6 9 C5.34 8.67 4.68 8.34 4 8 C4 7.01 4 6.02 4 5 C3.34 5 2.68 5 2 5 C1.34 3.35 0.68 1.7 0 0 Z " fill="#EBA71E" transform="translate(41,103)"/>
<path d="M0 0 C0.33 0 0.66 0 1 0 C1 1.98 1 3.96 1 6 C1.99 6.33 2.98 6.66 4 7 C3.92303847 10.23238414 3.62561345 12.33227795 1.375 14.734375 C-0.37770071 16.21851673 -2.15079362 17.63844334 -4 19 C-4.66 18.67 -5.32 18.34 -6 18 C-6 17.34 -6 16.68 -6 16 C-6.66 16 -7.32 16 -8 16 C-8 15.34 -8 14.68 -8 14 C-9.98 14 -11.96 14 -14 14 C-14 13.67 -14 13.34 -14 13 C-11.36 13 -8.72 13 -6 13 C-6 12.34 -6 11.68 -6 11 C-4.68 10.67 -3.36 10.34 -2 10 C-2 9.34 -2 8.68 -2 8 C-1.34 8 -0.68 8 0 8 C0 5.36 0 2.72 0 0 Z " fill="#FBF7ED" transform="translate(30,38)"/>
<path d="M0 0 C0 0.33 0 0.66 0 1 C-1.98 1 -3.96 1 -6 1 C-6.433125 2.1446875 -6.433125 2.1446875 -6.875 3.3125 C-8 6 -8 6 -10 9 C-12.97 8.67 -15.94 8.34 -19 8 C-16.30918158 -2.76327367 -9.30055179 -1.37533782 0 0 Z " fill="#E48103" transform="translate(67,57)"/>
<path d="M0 0 C-0.99 0.33 -1.98 0.66 -3 1 C-2.34 1.66 -1.68 2.32 -1 3 C-4 5 -4 5 -7 5 C-7 6.65 -7 8.3 -7 10 C-7.99 10.495 -7.99 10.495 -9 11 C-8.67 9.35 -8.34 7.7 -8 6 C-8.66 6 -9.32 6 -10 6 C-10 6.66 -10 7.32 -10 8 C-10.66 8 -11.32 8 -12 8 C-11.67 8.99 -11.34 9.98 -11 11 C-11.99 12.485 -11.99 12.485 -13 14 C-14.32 14 -15.64 14 -17 14 C-15.65545714 8.48737428 -13.07879205 4.82701476 -9 1 C-5.62082258 -0.93095852 -3.66876121 -1.35880045 0 0 Z " fill="#C0390F" transform="translate(70,66)"/>
<path d="M0 0 C2 2 2 2 2.125 5.125 C2.08375 6.07375 2.0425 7.0225 2 8 C2.66 8 3.32 8 4 8 C7 13.75 7 13.75 7 16 C7.66 16 8.32 16 9 16 C9 17.32 9 18.64 9 20 C11.475 20.99 11.475 20.99 14 22 C14 22.66 14 23.32 14 24 C17.58752742 25.86551426 21.27812193 27.42535928 25 29 C22.5332355 29.88336837 21.36140628 30.1312406 18.859375 29.22265625 C17.81523438 28.64837891 17.81523438 28.64837891 16.75 28.0625 C16.04359375 27.68222656 15.3371875 27.30195312 14.609375 26.91015625 C14.07828125 26.60980469 13.5471875 26.30945313 13 26 C13 25.34 13 24.68 13 24 C12.34 24 11.68 24 11 24 C11 23.34 11 22.68 11 22 C10.4225 21.7525 9.845 21.505 9.25 21.25 C6.58421598 19.76900888 4.91797067 18.38092911 3 16 C2.375 13.1875 2.375 13.1875 2 10 C1.649375 8.783125 1.29875 7.56625 0.9375 6.3125 C0 3 0 3 0 0 Z " fill="#DB5404" transform="translate(39,88)"/>
<path d="M0 0 C0.6875 2.3125 0.6875 2.3125 1 5 C-0.0625 6.75 -0.0625 6.75 -2 8 C-5.1875 8.6875 -5.1875 8.6875 -8 9 C-8 8.01 -8 7.02 -8 6 C-8.66 6 -9.32 6 -10 6 C-10 5.34 -10 4.68 -10 4 C-11.32 3.67 -12.64 3.34 -14 3 C-4.58997722 -0.44419134 -4.58997722 -0.44419134 0 0 Z " fill="#F0A715" transform="translate(64,33)"/>
<path d="M0 0 C0.66 0.495 1.32 0.99 2 1.5 C5.81058601 3.405293 8.8110682 3.65874331 13 3 C15.9254644 1.6490712 15.9254644 1.6490712 18 0 C17.45912682 3.78611227 15.88277668 5.55400767 13 8 C12.34 8 11.68 8 11 8 C11 7.34 11 6.68 11 6 C10.34 6.66 9.68 7.32 9 8 C5.74622641 9.25092556 3.92279207 8.8844967 0.75 7.5625 C0.04359375 7.27503906 -0.6628125 6.98757812 -1.390625 6.69140625 C-1.92171875 6.46324219 -2.4528125 6.23507813 -3 6 C-2.505 5.566875 -2.01 5.13375 -1.5 4.6875 C0.33218192 3.00259517 0.33218192 3.00259517 0 0 Z " fill="#F9EFDB" transform="translate(85,26)"/>
<path d="M0 0 C0 0.33 0 0.66 0 1 C-2.64 1 -5.28 1 -8 1 C-8 1.66 -8 2.32 -8 3 C-8.66 3 -9.32 3 -10 3 C-9.34 4.98 -8.68 6.96 -8 9 C-8.66 9 -9.32 9 -10 9 C-9.67 10.98 -9.34 12.96 -9 15 C-9.66 14.67 -10.32 14.34 -11 14 C-11.33 14.99 -11.66 15.98 -12 17 C-14.58399406 14.41600594 -14.3268593 13.21629635 -14.375 9.625 C-14.27960969 4.41941454 -14.27960969 4.41941454 -12.25 1.375 C-7.83052932 -1.32578764 -5.05968149 -1.03493485 0 0 Z " fill="#D67C0E" transform="translate(24,31)"/>
<path d="M0 0 C0.86947266 0.02707031 1.73894531 0.05414063 2.63476562 0.08203125 C9.69547235 0.40847705 16.47954776 1.22491882 22 5.9375 C22.474375 6.535625 22.94875 7.13375 23.4375 7.75 C21.70732492 7.29548816 19.97840123 6.83621143 18.25 6.375 C17.28707031 6.11976562 16.32414062 5.86453125 15.33203125 5.6015625 C12.4375 4.75 12.4375 4.75 9.89453125 3.6640625 C2.25203061 0.82090646 -6.85191475 3.07962176 -14.5625 4.75 C-14.2325 4.09 -13.9025 3.43 -13.5625 2.75 C-12.9025 2.75 -12.2425 2.75 -11.5625 2.75 C-11.5625 2.09 -11.5625 1.43 -11.5625 0.75 C-8.0016979 -1.03040105 -3.90329198 -0.18520293 0 0 Z " fill="#A45018" transform="translate(72.5625,41.25)"/>
<path d="M0 0 C0.66 0.66 1.32 1.32 2 2 C-14.70842825 5.44419134 -14.70842825 5.44419134 -23 5 C-21.58933587 2.17867174 -19.53628422 1.63471856 -16.66796875 0.60546875 C-11.23559597 -0.62735377 -5.52504747 -0.55830532 0 0 Z " fill="#DC8824" transform="translate(75,49)"/>
<path d="M0 0 C1.32 0.33 2.64 0.66 4 1 C4 1.66 4 2.32 4 3 C4.66 3 5.32 3 6 3 C6.2475 3.804375 6.495 4.60875 6.75 5.4375 C7.72238859 8.171081 7.72238859 8.171081 10.125 8.8125 C10.74375 8.874375 11.3625 8.93625 12 9 C12 11.31 12 13.62 12 16 C8.58540447 14.86180149 7.6675842 13.75994482 5.375 11.0625 C4.76398437 10.35222656 4.15296875 9.64195313 3.5234375 8.91015625 C2 7 2 7 1 5 C1.66 5 2.32 5 3 5 C2.2236068 1.9254644 2.2236068 1.9254644 0 0 Z " fill="#E47015" transform="translate(12,88)"/>
<path d="M0 0 C0.66 0.33 1.32 0.66 2 1 C1.67 1.99 1.34 2.98 1 4 C0.01 4 -0.98 4 -2 4 C-1.67 4.99 -1.34 5.98 -1 7 C-1.33 7.66 -1.66 8.32 -2 9 C-4.67259973 9.74482287 -7.29694119 10.40322078 -10 11 C-11.33427682 11.32953642 -12.66790839 11.66173853 -14 12 C-14 11.34 -14 10.68 -14 10 C-14.99 9.67 -15.98 9.34 -17 9 C-16.19175781 8.68546875 -15.38351563 8.3709375 -14.55078125 8.046875 C-13.48214844 7.61890625 -12.41351563 7.1909375 -11.3125 6.75 C-10.25675781 6.33234375 -9.20101562 5.9146875 -8.11328125 5.484375 C-4.98077741 3.9908349 -2.61180529 2.26776415 0 0 Z " fill="#DFAC39" transform="translate(102,107)"/>
<path d="M0 0 C8.03723031 1.3573989 13.35546796 3.92127319 19 10 C15.26706206 9.49748912 11.65064917 8.91266229 8 8 C7.01 8 6.02 8 5 8 C5 7.01 5 6.02 5 5 C4.34 4.67 3.68 4.34 3 4 C3.66 4 4.32 4 5 4 C5 3.34 5 2.68 5 2 C3.35 2 1.7 2 0 2 C0 1.34 0 0.68 0 0 Z " fill="#ED9D14" transform="translate(91,35)"/>
<path d="M0 0 C1.32 0.33 2.64 0.66 4 1 C4.2226746 2.43534841 4.42761906 3.87345525 4.625 5.3125 C4.74101562 6.11300781 4.85703125 6.91351563 4.9765625 7.73828125 C5 10 5 10 3 13 C2.67 12.01 2.34 11.02 2 10 C1.01 10.33 0.02 10.66 -1 11 C-1 11.66 -1 12.32 -1 13 C-1.99 13.33 -2.98 13.66 -4 14 C-2.85248597 9.2460133 -1.61737483 4.62107093 0 0 Z " fill="#EA871D" transform="translate(138,75)"/>
<path d="M0 0 C0.66 0 1.32 0 2 0 C1.35008857 3.50952175 0.11917763 6.12397322 -2 9 C-4.6875 10.3125 -4.6875 10.3125 -7 11 C-6.67 10.01 -6.34 9.02 -6 8 C-5.34 8 -4.68 8 -4 8 C-3.71125 7.05125 -3.4225 6.1025 -3.125 5.125 C-2 2 -2 2 0 0 Z M-11 10 C-9.68 10.66 -8.36 11.32 -7 12 C-7.33 12.66 -7.66 13.32 -8 14 C-8.66 14 -9.32 14 -10 14 C-10 14.66 -10 15.32 -10 16 C-9.34 16 -8.68 16 -8 16 C-8.33 17.32 -8.66 18.64 -9 20 C-10.32 20 -11.64 20 -13 20 C-13.20086443 16.28400809 -13.1519437 15.22791555 -11 12 C-11 11.34 -11 10.68 -11 10 Z " fill="#ED7903" transform="translate(122,96)"/>
<path d="M0 0 C0.77601562 0.32742187 1.55203125 0.65484375 2.3515625 0.9921875 C7.1038861 2.30492785 11.47388863 2.2158908 16.375 2.125 C17.30183594 2.11597656 18.22867188 2.10695313 19.18359375 2.09765625 C21.45600077 2.07422937 23.7278618 2.04142748 26 2 C23.02554233 4.57871437 21.23424236 5.37379003 17.3046875 5.328125 C16.42425781 5.32296875 15.54382813 5.3178125 14.63671875 5.3125 C13.72535156 5.291875 12.81398438 5.27125 11.875 5.25 C10.95589844 5.24484375 10.03679687 5.2396875 9.08984375 5.234375 C2.30944549 5.15472274 2.30944549 5.15472274 0 4 C0 2.68 0 1.36 0 0 Z " fill="#F1B11F" transform="translate(62,119)"/>
<path d="M0 0 C0.33 0 0.66 0 1 0 C1.13277344 0.61488281 1.26554687 1.22976562 1.40234375 1.86328125 C1.57894531 2.67152344 1.75554687 3.47976562 1.9375 4.3125 C2.19853516 5.51326172 2.19853516 5.51326172 2.46484375 6.73828125 C2.99886159 9.145401 2.99886159 9.145401 4 12 C7.3 12.66 10.6 13.32 14 14 C14 14.33 14 14.66 14 15 C11.36 15 8.72 15 6 15 C5.67 16.32 5.34 17.64 5 19 C2.35247996 16.42215154 0.05567935 14.08351902 -2 11 C-1.34 11 -0.68 11 0 11 C0 7.37 0 3.74 0 0 Z " fill="#FBF2E2" transform="translate(116,37)"/>
<path d="M0 0 C0.66 0.33 1.32 0.66 2 1 C1.67 1.33 1.34 1.66 1 2 C1.66 2.66 2.32 3.32 3 4 C2.1646875 4.31130859 2.1646875 4.31130859 1.3125 4.62890625 C-5.86501101 7.52658384 -11.66405781 11.49608671 -16 18 C-16.66 17.67 -17.32 17.34 -18 17 C-13.85572941 9.79257289 -7.41177706 3.79869042 0 0 Z " fill="#DDD5D0" transform="translate(58,46)"/>
<path d="M0 0 C0.99 0.33 1.98 0.66 3 1 C2.3503125 1.74056641 2.3503125 1.74056641 1.6875 2.49609375 C1.130625 3.13675781 0.57375 3.77742188 0 4.4375 C-0.556875 5.07558594 -1.11375 5.71367188 -1.6875 6.37109375 C-3.10457065 7.78113179 -3.10457065 7.78113179 -3 9 C-1.02 7.35 0.96 5.7 3 4 C1.18690997 7.77727089 -0.9073259 11.37269822 -3 15 C-3.66 15 -4.32 15 -5 15 C-5 14.34 -5 13.68 -5 13 C-5.99 13.33 -6.98 13.66 -8 14 C-8 13.01 -8 12.02 -8 11 C-7.34 11 -6.68 11 -6 11 C-6.04125 10.236875 -6.0825 9.47375 -6.125 8.6875 C-6 6 -6 6 -4 3 C-3.01 3 -2.02 3 -1 3 C-0.67 2.01 -0.34 1.02 0 0 Z " fill="#BE5D10" transform="translate(45,53)"/>
<path d="M0 0 C4.95 0 9.9 0 15 0 C15 0.99 15 1.98 15 3 C16.65 2.67 18.3 2.34 20 2 C19.67 2.66 19.34 3.32 19 4 C12.69971435 5.78051551 7.02552856 4.36642731 1 2 C0.67 1.34 0.34 0.68 0 0 Z " fill="#F2F5F6" transform="translate(67,45)"/>
<path d="M0 0 C0.33 0 0.66 0 1 0 C1.33 1.65 1.66 3.3 2 5 C2.33 5 2.66 5 3 5 C3.37272014 11.73657146 3.04621971 16.90756058 0 23 C-2.109375 24.21875 -2.109375 24.21875 -4 25 C-3.79503906 24.45214844 -3.59007813 23.90429688 -3.37890625 23.33984375 C-0.73860286 15.57052996 -0.31499141 8.1463295 0 0 Z " fill="#D27F2F" transform="translate(112,75)"/>
<path d="M0 0 C1.16306443 3.54950034 0.92365049 6.55823948 0.5625 10.25 C0.46066406 11.32765625 0.35882813 12.4053125 0.25390625 13.515625 C0.17011719 14.33546875 0.08632813 15.1553125 0 16 C-0.99 16.33 -1.98 16.66 -3 17 C-4 16 -4 16 -4.1328125 13.56640625 C-4.13023438 12.57511719 -4.12765625 11.58382812 -4.125 10.5625 C-4.12757812 9.57378906 -4.13015625 8.58507812 -4.1328125 7.56640625 C-4 5 -4 5 -3 3 C-2.01 3 -1.02 3 0 3 C0 2.01 0 1.02 0 0 Z " fill="#F5F9F6" transform="translate(52,75)"/>
<path d="M0 0 C0.99 0.33 1.98 0.66 3 1 C3 1.66 3 2.32 3 3 C3.99 3 4.98 3 6 3 C6 3.66 6 4.32 6 5 C4.68 5 3.36 5 2 5 C1.67 5.66 1.34 6.32 1 7 C-1.21484375 7.44921875 -1.21484375 7.44921875 -3.9375 7.6875 C-5.28134766 7.81705078 -5.28134766 7.81705078 -6.65234375 7.94921875 C-9 8 -9 8 -11 7 C-9.68 6.67 -8.36 6.34 -7 6 C-7 5.34 -7 4.68 -7 4 C-5.5459375 3.2884375 -5.5459375 3.2884375 -4.0625 2.5625 C-1.19522563 1.29806053 -1.19522563 1.29806053 0 0 Z " fill="#F07B03" transform="translate(95,120)"/>
<path d="M0 0 C0 0.99 0 1.98 0 3 C-0.33 3.33 -0.66 3.66 -1 4 C-0.34 4.33 0.32 4.66 1 5 C0.45276317 8.37462715 -0.0549 10.08235 -2 13 C-3.32 12.67 -4.64 12.34 -6 12 C-5.34 12 -4.68 12 -4 12 C-4 11.34 -4 10.68 -4 10 C-4.99 9.67 -5.98 9.34 -7 9 C-5.44499019 5.18315774 -2.96404505 2.80804268 0 0 Z " fill="#EB8E27" transform="translate(15,67)"/>
<path d="M0 0 C-0.99 0.33 -1.98 0.66 -3 1 C-2.67 2.98 -2.34 4.96 -2 7 C-2.99 7.495 -2.99 7.495 -4 8 C-4 7.01 -4 6.02 -4 5 C-5.98 5.33 -7.96 5.66 -10 6 C-9.74438677 3.6568787 -9.40729228 1.32156597 -9 -1 C-5.79937313 -2.60031344 -3.27728194 -1.03173691 0 0 Z " fill="#D37702" transform="translate(132,33)"/>
<path d="M0 0 C-0.33 0.66 -0.66 1.32 -1 2 C-1.85464844 1.67386719 -2.70929688 1.34773438 -3.58984375 1.01171875 C-7.11386139 -0.03378018 -9.90037705 -0.23506004 -13.5625 -0.1875 C-14.65691406 -0.18105469 -15.75132813 -0.17460938 -16.87890625 -0.16796875 C-19.69353265 -0.01649324 -22.2598323 0.36215836 -25 1 C-19.21833849 -5.64891074 -6.83925439 -4.55950293 0 0 Z " fill="#D4CFCD" transform="translate(81,66)"/>
<path d="M0 0 C0.66 0.99 1.32 1.98 2 3 C1.67 3.66 1.34 4.32 1 5 C0.835 5.825 0.67 6.65 0.5 7.5 C0 10 0 10 -1 12 C-1.66 12 -2.32 12 -3 12 C-3 12.66 -3 13.32 -3 14 C-4.98 14.99 -4.98 14.99 -7 16 C-7 14.35 -7 12.7 -7 11 C-6.01 11 -5.02 11 -4 11 C-3.896875 10.113125 -3.79375 9.22625 -3.6875 8.3125 C-2.98809298 4.9426298 -1.91257489 2.82728462 0 0 Z " fill="#DD931A" transform="translate(107,100)"/>
<path d="M0 0 C2.57481441 0.92979409 4.67434717 1.72576604 6.78125 3.5 C9.58949494 5.39853179 11.90851018 5.71533296 15.25 6.1875 C16.32765625 6.34605469 17.4053125 6.50460938 18.515625 6.66796875 C19.33546875 6.77753906 20.1553125 6.88710937 21 7 C21 7.66 21 8.32 21 9 C6.38935913 8.0120919 6.38935913 8.0120919 1.625 4 C0 2 0 2 0 0 Z " fill="#E67603" transform="translate(51,122)"/>
<path d="M0 0 C0.66 0.33 1.32 0.66 2 1 C0.87224426 4.38326722 -0.35703248 5.66796984 -3 8 C-3.99 8.33 -4.98 8.66 -6 9 C-7.00642948 10.32848691 -8.00692179 11.66150329 -9 13 C-9.66 13 -10.32 13 -11 13 C-10.67 11.35 -10.34 9.7 -10 8 C-9.34 8 -8.68 8 -8 8 C-8 7.34 -8 6.68 -8 6 C-7.34 6 -6.68 6 -6 6 C-6 5.34 -6 4.68 -6 4 C-4.03852126 2.61061923 -2.03833424 1.2739589 0 0 Z " fill="#E27902" transform="translate(51,45)"/>
<path d="M0 0 C0.8125 1.6875 0.8125 1.6875 1 4 C-1 6.75 -1 6.75 -4 9 C-7.8125 9.3125 -7.8125 9.3125 -11 9 C-10.67 8.01 -10.34 7.02 -10 6 C-6.4375 4.8125 -6.4375 4.8125 -3 4 C-3 3.34 -3 2.68 -3 2 C-2.01 1.34 -1.02 0.68 0 0 Z " fill="#E66D0A" transform="translate(140,84)"/>
<path d="M0 0 C0.33 1.32 0.66 2.64 1 4 C-6.93951556 8.05422071 -15.29734441 7.47386188 -24 7 C-24.99 6.67 -25.98 6.34 -27 6 C-26.67 5.34 -26.34 4.68 -26 4 C-25.46890625 4.15855469 -24.9378125 4.31710938 -24.390625 4.48046875 C-15.89751525 6.32619358 -8.31614141 5.6429359 -1 1 C-0.67 0.67 -0.34 0.34 0 0 Z " fill="#CFBAB4" transform="translate(91,99)"/>
<path d="M0 0 C2 1.5625 2 1.5625 3 3 C-0.10747694 4.55373847 -2.74226527 3.58528628 -6.125 3.0625 C-7.40632813 2.86785156 -8.68765625 2.67320313 -10.0078125 2.47265625 C-10.99523437 2.31667969 -11.98265625 2.16070312 -13 2 C-9.13517222 -1.86482778 -4.95302263 -1.20729927 0 0 Z " fill="#BF3109" transform="translate(78,66)"/>
<path d="M0 0 C1.98 0.495 1.98 0.495 4 1 C4 1.66 4 2.32 4 3 C4.99 2.67 5.98 2.34 7 2 C7.66 2.66 8.32 3.32 9 4 C8.34 4 7.68 4 7 4 C6.67 5.32 6.34 6.64 6 8 C3.03824877 7.38722388 1.61941217 6.74627478 -1 5 C-0.67 3.35 -0.34 1.7 0 0 Z " fill="#F6F6F6" transform="translate(89,51)"/>
<path d="M0 0 C0.99 0.495 0.99 0.495 2 1 C2.185625 2.2065625 2.185625 2.2065625 2.375 3.4375 C2.58125 4.283125 2.7875 5.12875 3 6 C4.96672915 7.1500831 4.96672915 7.1500831 7 8 C7.33 8.99 7.66 9.98 8 11 C10.01508358 11.73323796 10.01508358 11.73323796 12 12 C12 12.66 12 13.32 12 14 C9.69 14 7.38 14 5 14 C4 11 4 11 5 8 C4.01 7.67 3.02 7.34 2 7 C0.8125 3.4375 0.8125 3.4375 0 0 Z " fill="#E09135" transform="translate(48,98)"/>
<path d="M0 0 C0.66 0 1.32 0 2 0 C2.33 1.32 2.66 2.64 3 4 C2.34 4 1.68 4 1 4 C1 5.98 1 7.96 1 10 C-1.31 10 -3.62 10 -6 10 C-4.96501431 6.89504293 -4.21350711 6.21350711 -2 4 C-0.82425289 1.90010348 -0.82425289 1.90010348 0 0 Z " fill="#F07E0A" transform="translate(23,60)"/>
<path d="M0 0 C0.66 0.33 1.32 0.66 2 1 C2 2.32 2 3.64 2 5 C2.66 5.33 3.32 5.66 4 6 C1.36 6.66 -1.28 7.32 -4 8 C-4 7.01 -4 6.02 -4 5 C-5.98 5 -7.96 5 -10 5 C-10 4.67 -10 4.34 -10 4 C-7.98177083 3.54427083 -5.96354167 3.08854167 -3.9453125 2.6328125 C-1.79280036 2.09525572 -1.79280036 2.09525572 0 0 Z " fill="#F4E6D0" transform="translate(62,26)"/>
<path d="M0 0 C-0.61875 0.2475 -1.2375 0.495 -1.875 0.75 C-4.37014283 2.21773108 -4.90127713 3.37996855 -6 6 C-7.58272601 7.58272601 -9.38034003 7.34735747 -11.5625 7.5625 C-12.80193359 7.68818359 -12.80193359 7.68818359 -14.06640625 7.81640625 C-15.02353516 7.90728516 -15.02353516 7.90728516 -16 8 C-14.50415516 5.00831032 -11.93920694 4.46960347 -9 3 C-8.505 2.443125 -8.01 1.88625 -7.5 1.3125 C-5.17212465 -0.72439093 -2.96469798 -0.19764653 0 0 Z " fill="#ED980D" transform="translate(100,116)"/>
<path d="M0 0 C3.44270451 1.53009089 6.18925822 3.4931222 9 6 C10.09506492 9.28519475 10.09960608 11.73663415 10.0625 15.1875 C10.05347656 16.27417969 10.04445313 17.36085938 10.03515625 18.48046875 C10.02355469 19.31191406 10.01195313 20.14335938 10 21 C9.67 21 9.34 21 9 21 C8.96261719 20.22914062 8.92523438 19.45828125 8.88671875 18.6640625 C8.82097656 17.66117188 8.75523438 16.65828125 8.6875 15.625 C8.60048828 14.12839844 8.60048828 14.12839844 8.51171875 12.6015625 C8.34285156 11.74304688 8.17398438 10.88453125 8 10 C7.01 9.34 6.02 8.68 5 8 C5 7.01 5 6.02 5 5 C4.360625 4.731875 3.72125 4.46375 3.0625 4.1875 C1 3 1 3 0 0 Z " fill="#9D3C19" transform="translate(81,67)"/>
<path d="M0 0 C3.625 0.25 3.625 0.25 6.625 3.25 C3.325 2.92 0.025 2.59 -3.375 2.25 C-3.705 3.24 -4.035 4.23 -4.375 5.25 C-4.87 5.683125 -5.365 6.11625 -5.875 6.5625 C-7.98004861 8.93067968 -8.03220173 11.16481553 -8.375 14.25 C-8.705 14.25 -9.035 14.25 -9.375 14.25 C-9.99014196 6.99132492 -9.99014196 6.99132492 -6.9375 3.3125 C-6.091875 2.631875 -5.24625 1.95125 -4.375 1.25 C-3.375 0.25 -3.375 0.25 0 0 Z " fill="#A86B20" transform="translate(126.375,29.75)"/>
<path d="M0 0 C5.49152542 0.61016949 5.49152542 0.61016949 7.875 2.4375 C9 4 9 4 9 6 C9.495 6.495 9.99 6.99 10.5 7.5 C10.995 7.995 11.49 8.49 12 9 C12 9.66 12 10.32 12 11 C7.25519411 8.79705441 4.18454027 6.83719632 2 2 C1.34 1.34 0.68 0.68 0 0 Z " fill="#D26302" transform="translate(92,45)"/>
<path d="M0 0 C5.28 0 10.56 0 16 0 C15.01 0.495 15.01 0.495 14 1 C14 1.66 14 2.32 14 3 C12.60960943 3.27868395 11.21204454 3.52168931 9.8125 3.75 C9.03519531 3.88921875 8.25789063 4.0284375 7.45703125 4.171875 C5 4 5 4 0 0 Z " fill="#EB9C2C" transform="translate(66,31)"/>
<path d="M0 0 C4.95 0.99 9.9 1.98 15 3 C12.50882422 5.49117578 11.51144551 5.35140298 8.0625 5.4375 C6.74958984 5.49744141 6.74958984 5.49744141 5.41015625 5.55859375 C4.61480469 5.37425781 3.81945313 5.18992187 3 5 C2.01 3.35 1.02 1.7 0 0 Z " fill="#D97C0E" transform="translate(45,25)"/>
<path d="M0 0 C0.99 0.33 1.98 0.66 3 1 C0.86699672 3.36557373 -0.95949399 4.62967528 -3.9375 5.75 C-4.94103516 6.14445313 -4.94103516 6.14445313 -5.96484375 6.546875 C-8.31647491 7.07046274 -9.73617523 6.74954377 -12 6 C-11 4.5 -11 4.5 -9 3 C-6.28153765 2.72654521 -3.74322801 2.86508715 -1 3 C-0.67 2.01 -0.34 1.02 0 0 Z " fill="#DB6D23" transform="translate(94,126)"/>
<path d="M0 0 C0.66 0 1.32 0 2 0 C1.67 5.61 1.34 11.22 1 17 C0.34 17 -0.32 17 -1 17 C-1.02691685 14.54159395 -1.04679802 12.08348118 -1.0625 9.625 C-1.07087891 8.92632812 -1.07925781 8.22765625 -1.08789062 7.5078125 C-1.11328125 2.2265625 -1.11328125 2.2265625 0 0 Z " fill="#D79344" transform="translate(46,76)"/>
<path d="M0 0 C0.78503906 -0.01675781 1.57007813 -0.03351562 2.37890625 -0.05078125 C3.39791016 0.12904297 3.39791016 0.12904297 4.4375 0.3125 C5.0975 1.3025 5.7575 2.2925 6.4375 3.3125 C5.2 3.10625 3.9625 2.9 2.6875 2.6875 C0.28182607 2.41171727 -1.48488657 2.29781638 -3.875 2.75 C-6.64531336 5.31510496 -7.47393333 8.76641161 -8.5625 12.3125 C-8.8925 12.3125 -9.2225 12.3125 -9.5625 12.3125 C-9.74008833 8.40555679 -9.79763741 5.60638671 -7.5625 2.3125 C-4.45212372 0.23891581 -3.56688748 0.01762877 0 0 Z " fill="#A46213" transform="translate(53.5625,9.6875)"/>
<path d="M0 0 C2.5625 1.5625 2.5625 1.5625 4 3 C3.67 3.66 3.34 4.32 3 5 C2.484375 4.505 1.96875 4.01 1.4375 3.5 C-1.90028661 1.44597747 -4.14399755 1.58685688 -8 2 C-10.40083438 3.35885116 -10.40083438 3.35885116 -12 5 C-12.66 4.67 -13.32 4.34 -14 4 C-13.67 3.34 -13.34 2.68 -13 2 C-12.34 2 -11.68 2 -11 2 C-11 1.34 -11 0.68 -11 0 C-7.53506264 -1.73246868 -3.70216792 -0.76936705 0 0 Z " fill="#A76F29" transform="translate(99,10)"/>
<path d="M0 0 C2.31 0 4.62 0 7 0 C7.625 2.375 7.625 2.375 8 5 C7.34 5.66 6.68 6.32 6 7 C1.125 3.375 1.125 3.375 0 0 Z " fill="#E37015" transform="translate(24,104)"/>
<path d="M0 0 C6.90703976 -0.61669998 10.47759424 0.88757018 16 5 C14 6 14 6 12.01171875 5.51171875 C11.24472656 5.23972656 10.47773437 4.96773437 9.6875 4.6875 C8.88828125 4.40648437 8.0890625 4.12546875 7.265625 3.8359375 C4.82425219 2.93515512 2.39993453 2.00642416 0 1 C0 0.67 0 0.34 0 0 Z " fill="#AE622F" transform="translate(80,43)"/>
<path d="M0 0 C4.29 0 8.58 0 13 0 C13 0.66 13 1.32 13 2 C8.38 2.66 3.76 3.32 -1 4 C-0.67 2.68 -0.34 1.36 0 0 Z " fill="#C97E36" transform="translate(59,61)"/>
<path d="M0 0 C1 3 1 3 -0.1875 5.6875 C-0.785625 6.450625 -1.38375 7.21375 -2 8 C-3.32 8 -4.64 8 -6 8 C-6 7.34 -6 6.68 -6 6 C-7.98 6 -9.96 6 -12 6 C-12 5.67 -12 5.34 -12 5 C-9.36 5 -6.72 5 -4 5 C-4 4.34 -4 3.68 -4 3 C-2.68 2.67 -1.36 2.34 0 2 C0 1.34 0 0.68 0 0 Z " fill="#F1E4D2" transform="translate(28,46)"/>
<path d="M0 0 C1.32 0.66 2.64 1.32 4 2 C0.00386479 5.71069698 -2.37082652 7.59791618 -8 8 C-5.33333333 5.33333333 -2.66666667 2.66666667 0 0 Z " fill="#E79A34" transform="translate(46,38)"/>
<path d="M0 0 C0.66 0 1.32 0 2 0 C4.13586678 3.20380017 4.23132175 4.01939967 4.125 7.6875 C4.10695312 8.49574219 4.08890625 9.30398437 4.0703125 10.13671875 C4.03550781 11.05904297 4.03550781 11.05904297 4 12 C2 10.6875 2 10.6875 0 9 C0 6 0 3 0 0 Z " fill="#C97C17" transform="translate(133,32)"/>
<path d="M0 0 C0.99 0.33 1.98 0.66 3 1 C1.90344712 2.31886772 0.79746577 3.62990057 -0.3125 4.9375 C-0.92738281 5.66839844 -1.54226562 6.39929688 -2.17578125 7.15234375 C-4 9 -4 9 -7 10 C-7 8.68 -7 7.36 -7 6 C-5.68 6 -4.36 6 -3 6 C-2.814375 5.071875 -2.814375 5.071875 -2.625 4.125 C-2 2 -2 2 0 0 Z " fill="#B94A1B" transform="translate(93,93)"/>
<path d="M0 0 C1.32 0.33 2.64 0.66 4 1 C2.625 2.5 2.625 2.5 1 4 C0.34 4 -0.32 4 -1 4 C-1 4.66 -1 5.32 -1 6 C-3 7.625 -3 7.625 -5 9 C-5 8.01 -5 7.02 -5 6 C-5.66 6 -6.32 6 -7 6 C-7 5.34 -7 4.68 -7 4 C-4.69 3.01 -2.38 2.02 0 1 C0 0.67 0 0.34 0 0 Z " fill="#DE6F1F" transform="translate(119,106)"/>
<path d="M0 0 C1.875 0.125 1.875 0.125 4 1 C5.25 4.0625 5.25 4.0625 6 7 C0.46153846 6.50769231 0.46153846 6.50769231 -1.875 3.9375 C-2.431875 2.9784375 -2.431875 2.9784375 -3 2 C-1.68 2.33 -0.36 2.66 1 3 C0.67 2.01 0.34 1.02 0 0 Z " fill="#AD3B25" transform="translate(62,97)"/>
<path d="M0 0 C0.99 0 1.98 0 3 0 C1.75023244 3.65316671 1.32901247 4.78065836 -2 7 C-4.26171875 7.1953125 -4.26171875 7.1953125 -6.6875 7.125 C-7.89986328 7.09792969 -7.89986328 7.09792969 -9.13671875 7.0703125 C-10.05904297 7.03550781 -10.05904297 7.03550781 -11 7 C-11 6.67 -11 6.34 -11 6 C-8.69 6 -6.38 6 -4 6 C-3.67 5.01 -3.34 4.02 -3 3 C-2.01 3 -1.02 3 0 3 C0 2.01 0 1.02 0 0 Z " fill="#870200" transform="translate(84,89)"/>
<path d="M0 0 C1.32 0 2.64 0 4 0 C7.32822981 3.91160492 7.32748242 7.31979384 7.1875 12.3125 C7.14689453 14.19388672 7.14689453 14.19388672 7.10546875 16.11328125 C7.07066406 17.06589844 7.03585938 18.01851562 7 19 C6.67 19 6.34 19 6 19 C5.67 14.05 5.34 9.1 5 4 C4.01 3.67 3.02 3.34 2 3 C2 2.34 2 1.68 2 1 C1.34 0.67 0.68 0.34 0 0 Z " fill="#BC4401" transform="translate(85,69)"/>
<path d="M0 0 C2.31 1.98 4.62 3.96 7 6 C6.67 6.66 6.34 7.32 6 8 C5.01 8 4.02 8 3 8 C3 7.34 3 6.68 3 6 C1.68 5.34 0.36 4.68 -1 4 C-0.67 2.68 -0.34 1.36 0 0 Z " fill="#EA962C" transform="translate(129,64)"/>
<path d="M0 0 C3.33773709 3.64116773 3.97864902 7.28607242 5 12 C3.68 12 2.36 12 1 12 C-0.125 5.25 -0.125 5.25 1 3 C0.01 2.67 -0.98 2.34 -2 2 C-1.34 2 -0.68 2 0 2 C0 1.34 0 0.68 0 0 Z " fill="#E6E0DA" transform="translate(107,62)"/>
<path d="M0 0 C1.32 0 2.64 0 4 0 C4 0.99 4 1.98 4 3 C4.99 2.67 5.98 2.34 7 2 C7 2.66 7 3.32 7 4 C5.66666667 5.33333333 4.33333333 6.66666667 3 8 C0.37613513 4.93882432 0 4.26826873 0 0 Z " fill="#F8F9F2" transform="translate(122,52)"/>
<path d="M0 0 C-0.33 0.99 -0.66 1.98 -1 3 C-4.66305234 3.74926071 -7.42355152 4.2380014 -11 3 C-7.48550811 -0.37391222 -4.73940561 -0.27342725 0 0 Z " fill="#CE7501" transform="translate(98,11)"/>
<path d="M0 0 C0.48210938 0.42152344 0.96421875 0.84304687 1.4609375 1.27734375 C2.09257813 1.82519531 2.72421875 2.37304688 3.375 2.9375 C4.00148438 3.48277344 4.62796875 4.02804688 5.2734375 4.58984375 C6.95632334 6.06958624 6.95632334 6.06958624 9 7 C9 7.66 9 8.32 9 9 C9.66 9.33 10.32 9.66 11 10 C6.25 9.125 6.25 9.125 4 8 C4 7.01 4 6.02 4 5 C3.34 5 2.68 5 2 5 C1.34 3.35 0.68 1.7 0 0 Z " fill="#E28D1D" transform="translate(41,103)"/>
<path d="M0 0 C0.66 0 1.32 0 2 0 C3.4375 1.6796875 3.4375 1.6796875 5 3.875 C6.59356457 6.09802257 8.06234725 8.06234725 10 10 C5.25 9.25 5.25 9.25 3 7 C3 6.01 3 5.02 3 4 C2.01 3.67 1.02 3.34 0 3 C0 2.01 0 1.02 0 0 Z " fill="#D8D8D2" transform="translate(54,94)"/>
<path d="M0 0 C0 2.66666667 0 5.33333333 0 8 C-1.32 7.67 -2.64 7.34 -4 7 C-4.33 7.66 -4.66 8.32 -5 9 C-5 5 -5 5 -2.5 2.25 C-1.675 1.5075 -0.85 0.765 0 0 Z " fill="#ECDBCB" transform="translate(140,88)"/>
<path d="M0 0 C2.96404505 2.80804268 5.44499019 5.18315774 7 9 C6.01 9.495 6.01 9.495 5 10 C5 9.34 5 8.68 5 8 C4.34 8 3.68 8 3 8 C1.7109375 6.46875 1.7109375 6.46875 0.375 4.5 C-0.29402344 3.52546875 -0.29402344 3.52546875 -0.9765625 2.53125 C-1.31429687 2.0259375 -1.65203125 1.520625 -2 1 C-1.34 0.67 -0.68 0.34 0 0 Z " fill="#DA6F02" transform="translate(101,48)"/>
<path d="M0 0 C0.33 0 0.66 0 1 0 C1.13277344 0.62648437 1.26554687 1.25296875 1.40234375 1.8984375 C1.57894531 2.71570312 1.75554687 3.53296875 1.9375 4.375 C2.19853516 5.59316406 2.19853516 5.59316406 2.46484375 6.8359375 C2.92330693 9.029463 2.92330693 9.029463 4 11 C3.01 11 2.02 11 1 11 C1.33 12.32 1.66 13.64 2 15 C0.68 13.68 -0.64 12.36 -2 11 C-1.34 11 -0.68 11 0 11 C0 7.37 0 3.74 0 0 Z " fill="#FBEAD1" transform="translate(116,37)"/>
<path d="M0 0 C0.33 1.32 0.66 2.64 1 4 C-0.32 4.33 -1.64 4.66 -3 5 C-3.33 6.65 -3.66 8.3 -4 10 C-4.99 9.67 -5.98 9.34 -7 9 C-6.34 9 -5.68 9 -5 9 C-5.04125 8.21625 -5.0825 7.4325 -5.125 6.625 C-5 4 -5 4 -3 2 C-2.01 2 -1.02 2 0 2 C0 1.34 0 0.68 0 0 Z " fill="#D97802" transform="translate(135,40)"/>
<path d="M0 0 C0.99 0.33 1.98 0.66 3 1 C3 1.66 3 2.32 3 3 C3.66 3 4.32 3 5 3 C5 3.99 5 4.98 5 6 C6.32 6.66 7.64 7.32 9 8 C8.34 8.66 7.68 9.32 7 10 C3.60582235 6.87378374 1.3937282 4.43458973 0 0 Z " fill="#E7990E" transform="translate(40,105)"/>
<path d="M0 0 C0.99 0.33 1.98 0.66 3 1 C3.25 8.625 3.25 8.625 1 12 C1 9.36 1 6.72 1 4 C0.34 4 -0.32 4 -1 4 C-0.67 2.68 -0.34 1.36 0 0 Z " fill="#E77C00" transform="translate(42,76)"/>
<path d="M0 0 C-0.37879735 2.19702465 -0.90210381 3.83875922 -2.0625 5.75 C-5.23076771 7.79404368 -8.29162692 7.182379 -12 7 C-12 6.67 -12 6.34 -12 6 C-8.535 5.505 -8.535 5.505 -5 5 C-4.814375 4.0409375 -4.814375 4.0409375 -4.625 3.0625 C-4.41875 2.381875 -4.2125 1.70125 -4 1 C-2 0 -2 0 0 0 Z " fill="#D5913C" transform="translate(136,44)"/>
<path d="M0 0 C0.99 0 1.98 0 3 0 C3.125 6.75 3.125 6.75 2 9 C1.34 9 0.68 9 0 9 C0 6.03 0 3.06 0 0 Z " fill="#CA7A19" transform="translate(84,15)"/>
<path d="M0 0 C-0.99 0.33 -1.98 0.66 -3 1 C-3.73323796 3.01508358 -3.73323796 3.01508358 -4 5 C-4.99 5 -5.98 5 -7 5 C-7 4.34 -7 3.68 -7 3 C-7.99 2.67 -8.98 2.34 -10 2 C-8.71211992 1.46987262 -7.41953322 0.9511671 -6.125 0.4375 C-5.40570313 0.14746094 -4.68640625 -0.14257812 -3.9453125 -0.44140625 C-2 -1 -2 -1 0 0 Z " fill="#E5B953" transform="translate(95,114)"/>
<path d="M0 0 C0 3.59947819 -0.83412607 4.25100617 -3 7 C-3.69580267 8.31836295 -4.37224433 9.64791086 -5 11 C-5.66 11 -6.32 11 -7 11 C-7 9.68 -7 8.36 -7 7 C-6.34 7 -5.68 7 -5 7 C-4.731875 6.401875 -4.46375 5.80375 -4.1875 5.1875 C-3.01506533 3.02775192 -1.80630718 1.64209744 0 0 Z " fill="#CD590B" transform="translate(47,57)"/>
<path d="M0 0 C0.66 0 1.32 0 2 0 C2 0.66 2 1.32 2 2 C3.65 2 5.3 2 7 2 C7.33 2.99 7.66 3.98 8 5 C7.01 5.99 6.02 6.98 5 8 C4.87625 7.071875 4.87625 7.071875 4.75 6.125 C4.18741541 3.81562433 4.18741541 3.81562433 1.9375 2.75 C1.298125 2.5025 0.65875 2.255 0 2 C0 1.34 0 0.68 0 0 Z " fill="#EEA016" transform="translate(36,46)"/>
<path d="M0 0 C0 0.33 0 0.66 0 1 C-2.64 1 -5.28 1 -8 1 C-8 1.66 -8 2.32 -8 3 C-9.98 3.99 -9.98 3.99 -12 5 C-11.8125 3.125 -11.8125 3.125 -11 1 C-7.11220387 -1.33267768 -4.31933651 -1.00449686 0 0 Z " fill="#A1651A" transform="translate(24,31)"/>
<path d="M0 0 C0.66 0.33 1.32 0.66 2 1 C0.71937515 2.7074998 -0.61767557 4.37373596 -2 6 C-2.66 6 -3.32 6 -4 6 C-4 6.99 -4 7.98 -4 9 C-5.32 9.33 -6.64 9.66 -8 10 C-8 9.34 -8 8.68 -8 8 C-7.34 8 -6.68 8 -6 8 C-5.67 7.01 -5.34 6.02 -5 5 C-4.34 5 -3.68 5 -3 5 C-2.67 4.01 -2.34 3.02 -2 2 C-1.34 2 -0.68 2 0 2 C0 1.34 0 0.68 0 0 Z " fill="#E7D4C6" transform="translate(118,110)"/>
<path d="M0 0 C0.99 0.66 1.98 1.32 3 2 C2.67 2.66 2.34 3.32 2 4 C-3.94 2.515 -3.94 2.515 -10 1 C-5.61806947 -1.19096527 -4.55756375 -1.1636333 0 0 Z " fill="#BCA08F" transform="translate(78,64)"/>
<path d="M0 0 C1 2 1 2 0.0625 5.125 C-0.288125 6.07375 -0.63875 7.0225 -1 8 C-2.65 8 -4.3 8 -6 8 C-4.55746343 4.63408134 -2.66735273 2.48952921 0 0 Z " fill="#F0AA31" transform="translate(34,48)"/>
<path d="M0 0 C3.36591866 1.44253657 5.51047079 3.33264727 8 6 C5.69 5.67 3.38 5.34 1 5 C0.67 3.35 0.34 1.7 0 0 Z " fill="#ECA435" transform="translate(102,39)"/>
<path d="M0 0 C1.65 0 3.3 0 5 0 C5 0.66 5 1.32 5 2 C5.99 2.33 6.98 2.66 8 3 C7.67 4.32 7.34 5.64 7 7 C5.83040013 6.02433888 4.66438823 5.044375 3.5 4.0625 C2.8503125 3.51722656 2.200625 2.97195312 1.53125 2.41015625 C1.0259375 1.94480469 0.520625 1.47945312 0 1 C0 0.67 0 0.34 0 0 Z " fill="#FCF2DD" transform="translate(106,41)"/>
<path d="M0 0 C3.01217112 0.64449607 5.51655836 1.65022182 8.25 3.0625 C8.95640625 3.42472656 9.6628125 3.78695312 10.390625 4.16015625 C10.92171875 4.43730469 11.4528125 4.71445313 12 5 C9.5332355 5.88336837 8.36140628 6.1312406 5.859375 5.22265625 C5.16328125 4.83980469 4.4671875 4.45695312 3.75 4.0625 C3.04359375 3.68222656 2.3371875 3.30195312 1.609375 2.91015625 C1.07828125 2.60980469 0.5471875 2.30945313 0 2 C0 1.34 0 0.68 0 0 Z " fill="#D36108" transform="translate(52,112)"/>
<path d="M0 0 C0.66 0 1.32 0 2 0 C1.50168276 3.68754757 0.89932357 5.60490662 -2 8 C-2 6 -2 4 -2 2 C-1.34 2 -0.68 2 0 2 C0 1.34 0 0.68 0 0 Z M-5 8 C-4.01 8.495 -4.01 8.495 -3 9 C-3.99 9.495 -3.99 9.495 -5 10 C-5 9.34 -5 8.68 -5 8 Z " fill="#BC2F02" transform="translate(60,72)"/>
<path d="M0 0 C1.66666667 0 3.33333333 0 5 0 C5 2.64 5 5.28 5 8 C2.20127563 5.47211993 0.54226981 3.79588866 0 0 Z " fill="#BD6519" transform="translate(104,56)"/>
<path d="M0 0 C3.63 0 7.26 0 11 0 C11 0.66 11 1.32 11 2 C10.34 2 9.68 2 9 2 C9 2.66 9 3.32 9 4 C6.03 3.01 3.06 2.02 0 1 C0 0.67 0 0.34 0 0 Z " fill="#EADFC6" transform="translate(75,49)"/>
<path d="M0 0 C3.3 0 6.6 0 10 0 C10.33 0.99 10.66 1.98 11 3 C5.04296875 3.29296875 5.04296875 3.29296875 3 3 C2.01 2.01 1.02 1.02 0 0 Z " fill="#D98F28" transform="translate(87,27)"/>
<path d="M0 0 C0 0.99 0 1.98 0 3 C-2.31 3 -4.62 3 -7 3 C-6.67 2.01 -6.34 1.02 -6 0 C-3 -1 -3 -1 0 0 Z " fill="#EF7103" transform="translate(136,90)"/>
<path d="M0 0 C0.33 0.99 0.66 1.98 1 3 C1.66 3 2.32 3 3 3 C3 5.64 3 8.28 3 11 C2.34 11 1.68 11 1 11 C0.67 7.37 0.34 3.74 0 0 Z " fill="#EF9B0E" transform="translate(116,69)"/>
<path d="M0 0 C0.66 0.33 1.32 0.66 2 1 C1.67 2.65 1.34 4.3 1 6 C0.34 6 -0.32 6 -1 6 C-1 5.01 -1 4.02 -1 3 C-1.66 3 -2.32 3 -3 3 C-3 3.66 -3 4.32 -3 5 C-3.99 4.67 -4.98 4.34 -6 4 C-5.34 4 -4.68 4 -4 4 C-3.67 3.01 -3.34 2.02 -3 1 C-2.01 0.67 -1.02 0.34 0 0 Z " fill="#F0961C" transform="translate(29,55)"/>
<path d="M0 0 C0.66 1.32 1.32 2.64 2 4 C-0.31 5.65 -2.62 7.3 -5 9 C-4 5 -4 5 -2 3 C-1.34 2.01 -0.68 1.02 0 0 Z " fill="#FBF2E5" transform="translate(42,37)"/>
<path d="M0 0 C0.99 0.33 1.98 0.66 3 1 C4.1875 3.5625 4.1875 3.5625 5 6 C4.34 6 3.68 6 3 6 C2.67 6.66 2.34 7.32 2 8 C2 6.68 2 5.36 2 4 C1.34 4 0.68 4 0 4 C-0.33 4.66 -0.66 5.32 -1 6 C-1.042721 4.33388095 -1.04063832 2.66617115 -1 1 C-0.67 0.67 -0.34 0.34 0 0 Z " fill="#C6791B" transform="translate(11,34)"/>
<path d="M0 0 C-0.99 0.33 -1.98 0.66 -3 1 C-2.34 1.66 -1.68 2.32 -1 3 C-3.97 3 -6.94 3 -10 3 C-6.39703375 -0.60296625 -4.75741099 -1.47643789 0 0 Z " fill="#C5522A" transform="translate(70,66)"/>
<path d="M0 0 C0.66 0 1.32 0 2 0 C1.52797514 4.24822374 -0.96655518 6.19989709 -4 9 C-3.35494404 5.51669784 -2.01782732 2.90567134 0 0 Z " fill="#D97211" transform="translate(50,54)"/>
<path d="M0 0 C0.66 0.66 1.32 1.32 2 2 C0.02 4.31 -1.96 6.62 -4 9 C-4.66 8.67 -5.32 8.34 -6 8 C-2.25 2.25 -2.25 2.25 0 0 Z " fill="#C8A28D" transform="translate(46,55)"/>
<path d="M0 0 C0.66 0.33 1.32 0.66 2 1 C0.87994369 4.36016893 -0.37211797 5.69064913 -3 8 C-3.66 8 -4.32 8 -5 8 C-5 7.01 -5 6.02 -5 5 C-4.34 5 -3.68 5 -3 5 C-3 4.01 -3 3.02 -3 2 C-2.01 1.34 -1.02 0.68 0 0 Z " fill="#DB6D02" transform="translate(51,45)"/>
<path d="M0 0 C0.33 0.66 0.66 1.32 1 2 C-0.4375 4.625 -0.4375 4.625 -2 7 C-3.32 6.67 -4.64 6.34 -6 6 C-4.02 4.02 -2.04 2.04 0 0 Z " fill="#DF973D" transform="translate(22,60)"/>
<path d="M0 0 C2.78211944 0.37596209 4.5879284 0.67318459 6.8125 2.4375 C8 4 8 4 8 6 C4.63408134 4.55746343 2.48952921 2.66735273 0 0 Z " fill="#B4682F" transform="translate(96,50)"/>
<path d="M0 0 C0.66 0.33 1.32 0.66 2 1 C-2.455 3.97 -2.455 3.97 -7 7 C-7 6.01 -7 5.02 -7 4 C-1.7265625 0.77734375 -1.7265625 0.77734375 0 0 Z " fill="#B05B23" transform="translate(56,46)"/>
<path d="M0 0 C-1.32 0.33 -2.64 0.66 -4 1 C-4 1.66 -4 2.32 -4 3 C-5.98 3.33 -7.96 3.66 -10 4 C-9.67 3.34 -9.34 2.68 -9 2 C-8.34 2 -7.68 2 -7 2 C-7 1.34 -7 0.68 -7 0 C-4.3333581 -1.33332095 -2.83319697 -0.67102033 0 0 Z " fill="#B65811" transform="translate(68,42)"/>
<path d="M0 0 C-0.66 0 -1.32 0 -2 0 C-2.33 1.32 -2.66 2.64 -3 4 C-5.31 3.01 -7.62 2.02 -10 1 C-10 0.67 -10 0.34 -10 0 C-6.33694766 -0.74926071 -3.57644848 -1.2380014 0 0 Z " fill="#FAEACC" transform="translate(104,35)"/>
<path d="M0 0 C2.31 0.33 4.62 0.66 7 1 C7 2.32 7 3.64 7 5 C5.68 5 4.36 5 3 5 C1.25 2.5 1.25 2.5 0 0 Z " fill="#DD8A25" transform="translate(45,25)"/>
<path d="M0 0 C2.9375 0.375 2.9375 0.375 6 1 C7.33332095 3.6666419 6.67102033 5.16680303 6 8 C5.34 7.34 4.68 6.68 4 6 C4 5.01 4 4.02 4 3 C2.68 2.34 1.36 1.68 0 1 C0 0.67 0 0.34 0 0 Z " fill="#A10305" transform="translate(70,70)"/>
<path d="M0 0 C1.98 0.66 3.96 1.32 6 2 C6 2.66 6 3.32 6 4 C4.02 4.99 4.02 4.99 2 6 C1.34 4.02 0.68 2.04 0 0 Z " fill="#D9881E" transform="translate(50,64)"/>
<path d="M0 0 C0.33 0.99 0.66 1.98 1 3 C0.67 3.66 0.34 4.32 0 5 C-1.98 5 -3.96 5 -6 5 C-4.06745228 2.9754262 -2.36841312 1.57894208 0 0 Z " fill="#EEE8E0" transform="translate(105,123)"/>
<path d="M0 0 C-2.35968744 2.09749995 -3.54616994 2.96905704 -6.75 3.1875 C-7.86375 3.0946875 -7.86375 3.0946875 -9 3 C-6.38997624 -0.48003168 -4.1689578 -0.27793052 0 0 Z " fill="#EDA811" transform="translate(100,116)"/>
<path d="M0 0 C-0.25 1.875 -0.25 1.875 -1 4 C-3.0625 5.25 -3.0625 5.25 -5 6 C-5 4.35 -5 2.7 -5 1 C-2 0 -2 0 0 0 Z " fill="#EE9B11" transform="translate(105,110)"/>
</svg>
